999
dxflib 3.17.0.0
  0
SECTION
  2
HEADER
  9
$ACADVER
  1
AC1015
  9
$HANDSEED
  5
FFFF
  9
$DIMADEC
 70
0
  9
$DIMASZ
 40
3
  9
$DIMAUNIT
 70
0
  9
$DIMAZIN
 70
2
  9
$DIMDEC
 70
4
  9
$DIMDLI
 40
12
  9
$DIMDSEP
 70
46
  9
$DIMEXE
 40
3
  9
$DIMEXO
 40
1.5
  9
$DIMGAP
 40
1.5
  9
$DIMLUNIT
 70
2
  9
$DIMSCALE
 40
1.0
  9
$DIMTSZ
 40
0.0
  9
$DIMTXT
 40
7
  9
$DIMZIN
 70
8
  9
$DWGCODEPAGE
  3
ANSI_1252
  9
$INSUNITS
 70
5
  9
$LTSCALE
 40
2.0
  9
$MAXACTVP
 70
64
  9
$MEASUREMENT
 70
1
  9
$MIRRTEXT
 70
0
  9
$PDMODE
 70
0
  9
$PDSIZE
 40
0.0
  0
ENDSEC
  0
SECTION
  2
TABLES
  0
TABLE
  2
VPORT
  5
8
100
AcDbSymbolTable
 70
1
  0
VPORT
  5
30
100
AcDbSymbolTableRecord
100
AcDbViewportTableRecord
  2
*Active
 70
0
 10
0.0
 20
0.0
 11
1.0
 21
1.0
 12
286.3055555555554861
 22
148.5
 13
0.0
 23
0.0
 14
10.0
 24
10.0
 15
10.0
 25
10.0
 16
0.0
 26
0.0
 36
1.0
 17
0.0
 27
0.0
 37
0.0
 40
297.0
 41
1.92798353909465
 42
50.0
 43
0.0
 44
0.0
 50
0.0
 51
0.0
 71
0
 72
100
 73
1
 74
3
 75
1
 76
1
 77
0
 78
0
281
0
 65
1
110
0.0
120
0.0
130
0.0
111
1.0
121
0.0
131
0.0
112
0.0
122
1.0
132
0.0
 79
0
146
0.0
  0
ENDTAB
  0
TABLE
  2
LTYPE
  5
5
100
AcDbSymbolTable
 70
41
  0
LTYPE
  5
16
100
AcDbSymbolTableRecord
100
AcDbLinetypeTableRecord
  2
Continuous
 70
0
  3
Solid line
 72
65
 73
0
 40
0.0
  0
LTYPE
  5
31
100
AcDbSymbolTableRecord
100
AcDbLinetypeTableRecord
  2
ACAD_ISO15W100
 70
0
  3
ISO double-dash triple-dot __ __ . . . __ __ . .
 72
65
 73
10
 40
39.0
 49
12.0
 74
0
 49
-3.0
 74
0
 49
12.0
 74
0
 49
-3.0
 74
0
 49
0.0
 74
0
 49
-3.0
 74
0
 49
0.0
 74
0
 49
-3.0
 74
0
 49
0.0
 74
0
 49
-3.0
 74
0
  0
LTYPE
  5
32
100
AcDbSymbolTableRecord
100
AcDbLinetypeTableRecord
  2
ACAD_ISO05W100
 70
0
  3
ISO long-dash double-dot ____ .. ____ .. ____ . 
 72
65
 73
6
 40
33.0
 49
24.0
 74
0
 49
-3.0
 74
0
 49
0.0
 74
0
 49
-3.0
 74
0
 49
0.0
 74
0
 49
-3.0
 74
0
  0
LTYPE
  5
33
100
AcDbSymbolTableRecord
100
AcDbLinetypeTableRecord
  2
DIVIDE2
 70
0
  3
Divide (.5x) __..__..__..__..__..__..__..__.._
 72
65
 73
6
 40
15.875
 49
6.3499999999999996
 74
0
 49
-3.1749999999999998
 74
0
 49
0.0
 74
0
 49
-3.1749999999999998
 74
0
 49
0.0
 74
0
 49
-3.1749999999999998
 74
0
  0
LTYPE
  5
34
100
AcDbSymbolTableRecord
100
AcDbLinetypeTableRecord
  2
DOT
 70
0
  3
Dot . . . . . . . . . . . . . . . . . . . . . . . .
 72
65
 73
2
 40
6.3499999999999996
 49
0.0
 74
0
 49
-6.3499999999999996
 74
0
  0
LTYPE
  5
35
100
AcDbSymbolTableRecord
100
AcDbLinetypeTableRecord
  2
DASHEDX2
 70
0
  3
Dashed (2x) ____  ____  ____  ____  ____  ___
 72
65
 73
2
 40
38.0999999999999943
 49
25.3999999999999986
 74
0
 49
-12.6999999999999993
 74
0
  0
LTYPE
  5
36
100
AcDbSymbolTableRecord
100
AcDbLinetypeTableRecord
  2
CENTER2
 70
0
  3
Center (.5x) ___ _ ___ _ ___ _ ___ _ ___ _ ___
 72
65
 73
4
 40
28.5750000000000028
 49
19.0500000000000007
 74
0
 49
-3.1749999999999998
 74
0
 49
3.1749999999999998
 74
0
 49
-3.1749999999999998
 74
0
  0
LTYPE
  5
37
100
AcDbSymbolTableRecord
100
AcDbLinetypeTableRecord
  2
DIVIDE
 70
0
  3
Divide ____ . . ____ . . ____ . . ____ . . ____
 72
65
 73
6
 40
31.75
 49
12.6999999999999993
 74
0
 49
-6.3499999999999996
 74
0
 49
0.0
 74
0
 49
-6.3499999999999996
 74
0
 49
0.0
 74
0
 49
-6.3499999999999996
 74
0
  0
LTYPE
  5
38
100
AcDbSymbolTableRecord
100
AcDbLinetypeTableRecord
  2
ACAD_ISO08W100
 70
0
  3
ISO long-dash short-dash ____ __ ____ __ ____ _
 72
65
 73
4
 40
36.0
 49
24.0
 74
0
 49
-3.0
 74
0
 49
6.0
 74
0
 49
-3.0
 74
0
  0
LTYPE
  5
39
100
AcDbSymbolTableRecord
100
AcDbLinetypeTableRecord
  2
ACAD_ISO07W100
 70
0
  3
ISO dot . . . . . . . . . . . . . . . . . . . . 
 72
65
 73
2
 40
3.0
 49
0.0
 74
0
 49
-3.0
 74
0
  0
LTYPE
  5
3A
100
AcDbSymbolTableRecord
100
AcDbLinetypeTableRecord
  2
BORDER2
 70
0
  3
Border (.5x) __.__.__.__.__.__.__.__.__.__.__.
 72
65
 73
6
 40
22.2249999999999979
 49
6.3499999999999996
 74
0
 49
-3.1749999999999998
 74
0
 49
6.3499999999999996
 74
0
 49
-3.1749999999999998
 74
0
 49
0.0
 74
0
 49
-3.1749999999999998
 74
0
  0
LTYPE
  5
3B
100
AcDbSymbolTableRecord
100
AcDbLinetypeTableRecord
  2
DOTX2
 70
0
  3
Dot (2x) .  .  .  .  .  .  .  .  .  .  .  .  .  .
 72
65
 73
2
 40
12.6999999999999993
 49
0.0
 74
0
 49
-12.6999999999999993
 74
0
  0
LTYPE
  5
3C
100
AcDbSymbolTableRecord
100
AcDbLinetypeTableRecord
  2
HIDDEN
 70
0
  3
Hidden __ __ __ __ __ __ __ __ __ __ __ __ __ __
 72
65
 73
2
 40
9.5249999999999986
 49
6.3499999999999996
 74
0
 49
-3.1749999999999998
 74
0
  0
LTYPE
  5
3D
100
AcDbSymbolTableRecord
100
AcDbLinetypeTableRecord
  2
PHANTOM2
 70
0
  3
Phantom (.5x) ___ _ _ ___ _ _ ___ _ _ ___ _ _
 72
65
 73
6
 40
31.7500000000000036
 49
15.875
 74
0
 49
-3.1749999999999998
 74
0
 49
3.1749999999999998
 74
0
 49
-3.1749999999999998
 74
0
 49
3.1749999999999998
 74
0
 49
-3.1749999999999998
 74
0
  0
LTYPE
  5
3E
100
AcDbSymbolTableRecord
100
AcDbLinetypeTableRecord
  2
ACAD_ISO04W100
 70
0
  3
ISO long-dash dot ____ . ____ . ____ . ____ . _
 72
65
 73
4
 40
30.0
 49
24.0
 74
0
 49
-3.0
 74
0
 49
0.0
 74
0
 49
-3.0
 74
0
  0
LTYPE
  5
3F
100
AcDbSymbolTableRecord
100
AcDbLinetypeTableRecord
  2
PHANTOM
 70
0
  3
Phantom ______  __  __  ______  __  __  ______ 
 72
65
 73
6
 40
63.5000000000000071
 49
31.75
 74
0
 49
-6.3499999999999996
 74
0
 49
6.3499999999999996
 74
0
 49
-6.3499999999999996
 74
0
 49
6.3499999999999996
 74
0
 49
-6.3499999999999996
 74
0
  0
LTYPE
  5
40
100
AcDbSymbolTableRecord
100
AcDbLinetypeTableRecord
  2
ACAD_ISO12W100
 70
0
  3
ISO dash double-dot __ . . __ . . __ . . __ . . 
 72
65
 73
6
 40
21.0
 49
12.0
 74
0
 49
-3.0
 74
0
 49
0.0
 74
0
 49
-3.0
 74
0
 49
0.0
 74
0
 49
-3.0
 74
0
  0
LTYPE
  5
41
100
AcDbSymbolTableRecord
100
AcDbLinetypeTableRecord
  2
ACAD_ISO09W100
 70
0
  3
ISO long-dash double-short-dash ____ __ __ ____
 72
65
 73
6
 40
45.0
 49
24.0
 74
0
 49
-3.0
 74
0
 49
6.0
 74
0
 49
-3.0
 74
0
 49
6.0
 74
0
 49
-3.0
 74
0
  0
LTYPE
  5
42
100
AcDbSymbolTableRecord
100
AcDbLinetypeTableRecord
  2
DASHED
 70
0
  3
Dashed __ __ __ __ __ __ __ __ __ __ __ __ __ _
 72
65
 73
2
 40
19.0499999999999972
 49
12.6999999999999993
 74
0
 49
-6.3499999999999996
 74
0
  0
LTYPE
  5
43
100
AcDbSymbolTableRecord
100
AcDbLinetypeTableRecord
  2
DASHED2
 70
0
  3
Dashed (.5x) _ _ _ _ _ _ _ _ _ _ _ _ _ _ _ _ _ 
 72
65
 73
2
 40
9.5249999999999986
 49
6.3499999999999996
 74
0
 49
-3.1749999999999998
 74
0
  0
LTYPE
  5
44
100
AcDbSymbolTableRecord
100
AcDbLinetypeTableRecord
  2
ACAD_ISO11W100
 70
0
  3
ISO double-dash dot __ __ . __ __ . __ __ . __ _
 72
65
 73
6
 40
33.0
 49
12.0
 74
0
 49
-3.0
 74
0
 49
12.0
 74
0
 49
-3.0
 74
0
 49
0.0
 74
0
 49
-3.0
 74
0
  0
LTYPE
  5
45
100
AcDbSymbolTableRecord
100
AcDbLinetypeTableRecord
  2
ACAD_ISO02W100
 70
0
  3
ISO dash __ __ __ __ __ __ __ __ __ __ __ __ __
 72
65
 73
2
 40
15.0
 49
12.0
 74
0
 49
-3.0
 74
0
  0
LTYPE
  5
46
100
AcDbSymbolTableRecord
100
AcDbLinetypeTableRecord
  2
CENTER
 70
0
  3
Center ____ _ ____ _ ____ _ ____ _ ____ _ ____
 72
65
 73
4
 40
50.8000000000000043
 49
31.75
 74
0
 49
-6.3499999999999996
 74
0
 49
6.3499999999999996
 74
0
 49
-6.3499999999999996
 74
0
  0
LTYPE
  5
47
100
AcDbSymbolTableRecord
100
AcDbLinetypeTableRecord
  2
ACAD_ISO14W100
 70
0
  3
ISO dash triple-dot __ . . . __ . . . __ . . . _
 72
65
 73
8
 40
24.0
 49
12.0
 74
0
 49
-3.0
 74
0
 49
0.0
 74
0
 49
-3.0
 74
0
 49
0.0
 74
0
 49
-3.0
 74
0
 49
0.0
 74
0
 49
-3.0
 74
0
  0
LTYPE
  5
48
100
AcDbSymbolTableRecord
100
AcDbLinetypeTableRecord
  2
DASHDOTX2
 70
0
  3
Dash dot (2x) ____  .  ____  .  ____  .  ___
 72
65
 73
4
 40
50.7999999999999972
 49
25.3999999999999986
 74
0
 49
-12.6999999999999993
 74
0
 49
0.0
 74
0
 49
-12.6999999999999993
 74
0
  0
LTYPE
  5
14
100
AcDbSymbolTableRecord
100
AcDbLinetypeTableRecord
  2
BYBLOCK
 70
0
  3

 72
65
 73
0
 40
0.0
  0
LTYPE
  5
49
100
AcDbSymbolTableRecord
100
AcDbLinetypeTableRecord
  2
CENTERX2
 70
0
  3
Center (2x) ________  __  ________  __  _____
 72
65
 73
4
 40
101.6000000000000085
 49
63.5
 74
0
 49
-12.6999999999999993
 74
0
 49
12.6999999999999993
 74
0
 49
-12.6999999999999993
 74
0
  0
LTYPE
  5
4A
100
AcDbSymbolTableRecord
100
AcDbLinetypeTableRecord
  2
ACAD_ISO10W100
 70
0
  3
ISO dash dot __ . __ . __ . __ . __ . __ . __ . 
 72
65
 73
4
 40
18.0
 49
12.0
 74
0
 49
-3.0
 74
0
 49
0.0
 74
0
 49
-3.0
 74
0
  0
LTYPE
  5
4B
100
AcDbSymbolTableRecord
100
AcDbLinetypeTableRecord
  2
HIDDENX2
 70
0
  3
Hidden (2x) ____ ____ ____ ____ ____ ____ ____ 
 72
65
 73
2
 40
19.0499999999999972
 49
12.6999999999999993
 74
0
 49
-6.3499999999999996
 74
0
  0
LTYPE
  5
4C
100
AcDbSymbolTableRecord
100
AcDbLinetypeTableRecord
  2
DIVIDEX2
 70
0
  3
Divide (2x) ________  .  .  ________  .  .  _
 72
65
 73
6
 40
63.5
 49
25.3999999999999986
 74
0
 49
-12.6999999999999993
 74
0
 49
0.0
 74
0
 49
-12.6999999999999993
 74
0
 49
0.0
 74
0
 49
-12.6999999999999993
 74
0
  0
LTYPE
  5
4D
100
AcDbSymbolTableRecord
100
AcDbLinetypeTableRecord
  2
ACAD_ISO06W100
 70
0
  3
ISO long-dash triple-dot ____ ... ____ ... ____
 72
65
 73
8
 40
36.0
 49
24.0
 74
0
 49
-3.0
 74
0
 49
0.0
 74
0
 49
-3.0
 74
0
 49
0.0
 74
0
 49
-3.0
 74
0
 49
0.0
 74
0
 49
-3.0
 74
0
  0
LTYPE
  5
4E
100
AcDbSymbolTableRecord
100
AcDbLinetypeTableRecord
  2
BORDER
 70
0
  3
Border __ __ . __ __ . __ __ . __ __ . __ __ .
 72
65
 73
6
 40
44.4499999999999957
 49
12.6999999999999993
 74
0
 49
-6.3499999999999996
 74
0
 49
12.6999999999999993
 74
0
 49
-6.3499999999999996
 74
0
 49
0.0
 74
0
 49
-6.3499999999999996
 74
0
  0
LTYPE
  5
4F
100
AcDbSymbolTableRecord
100
AcDbLinetypeTableRecord
  2
DOT2
 70
0
  3
Dot (.5x) ........................................
 72
65
 73
2
 40
3.1749999999999998
 49
0.0
 74
0
 49
-3.1749999999999998
 74
0
  0
LTYPE
  5
50
100
AcDbSymbolTableRecord
100
AcDbLinetypeTableRecord
  2
BORDERX2
 70
0
  3
Border (2x) ____  ____  .  ____  ____  .  ___
 72
65
 73
6
 40
88.8999999999999915
 49
25.3999999999999986
 74
0
 49
-12.6999999999999993
 74
0
 49
25.3999999999999986
 74
0
 49
-12.6999999999999993
 74
0
 49
0.0
 74
0
 49
-12.6999999999999993
 74
0
  0
LTYPE
  5
51
100
AcDbSymbolTableRecord
100
AcDbLinetypeTableRecord
  2
DASHDOT
 70
0
  3
Dash dot __ . __ . __ . __ . __ . __ . __ . __
 72
65
 73
4
 40
25.3999999999999986
 49
12.6999999999999993
 74
0
 49
-6.3499999999999996
 74
0
 49
0.0
 74
0
 49
-6.3499999999999996
 74
0
  0
LTYPE
  5
52
100
AcDbSymbolTableRecord
100
AcDbLinetypeTableRecord
  2
HIDDEN2
 70
0
  3
Hidden (.5x) _ _ _ _ _ _ _ _ _ _ _ _ _ _ _ _ _ 
 72
65
 73
2
 40
4.7624999999999993
 49
3.1749999999999998
 74
0
 49
-1.5874999999999999
 74
0
  0
LTYPE
  5
53
100
AcDbSymbolTableRecord
100
AcDbLinetypeTableRecord
  2
ACAD_ISO13W100
 70
0
  3
ISO double-dash double-dot __ __ . . __ __ . . _
 72
65
 73
8
 40
36.0
 49
12.0
 74
0
 49
-3.0
 74
0
 49
12.0
 74
0
 49
-3.0
 74
0
 49
0.0
 74
0
 49
-3.0
 74
0
 49
0.0
 74
0
 49
-3.0
 74
0
  0
LTYPE
  5
54
100
AcDbSymbolTableRecord
100
AcDbLinetypeTableRecord
  2
DASHDOT2
 70
0
  3
Dash dot (.5x) _._._._._._._._._._._._._._._.
 72
65
 73
4
 40
12.6999999999999993
 49
6.3499999999999996
 74
0
 49
-3.1749999999999998
 74
0
 49
0.0
 74
0
 49
-3.1749999999999998
 74
0
  0
LTYPE
  5
55
100
AcDbSymbolTableRecord
100
AcDbLinetypeTableRecord
  2
PHANTOMX2
 70
0
  3
Phantom (2x) ____________    ____    ____   _
 72
65
 73
6
 40
127.0000000000000142
 49
63.5
 74
0
 49
-12.6999999999999993
 74
0
 49
12.6999999999999993
 74
0
 49
-12.6999999999999993
 74
0
 49
12.6999999999999993
 74
0
 49
-12.6999999999999993
 74
0
  0
LTYPE
  5
56
100
AcDbSymbolTableRecord
100
AcDbLinetypeTableRecord
  2
ACAD_ISO03W100
 70
0
  3
ISO dash space __    __    __    __    __    __
 72
65
 73
2
 40
30.0
 49
12.0
 74
0
 49
-18.0
 74
0
  0
LTYPE
  5
15
100
AcDbSymbolTableRecord
100
AcDbLinetypeTableRecord
  2
BYLAYER
 70
0
  3

 72
65
 73
0
 40
0.0
  0
ENDTAB
  0
TABLE
  2
LAYER
  5
2
100
AcDbSymbolTable
 70
5
  0
LAYER
  5
10
100
AcDbSymbolTableRecord
100
AcDbLayerTableRecord
  2
0
 70
0
 62
214
420
8388736
  6
Continuous
370
25
390
F
  0
LAYER
  5
57
100
AcDbSymbolTableRecord
100
AcDbLayerTableRecord
  2
Linhas_Visiveis
 70
0
 62
7
420
16777215
  6
Continuous
370
200
390
F
  0
LAYER
  5
58
100
AcDbSymbolTableRecord
100
AcDbLayerTableRecord
  2
Linhas_Invisiveis
 70
0
 62
252
420
10526884
  6
ACAD_ISO02W100
370
200
390
F
  0
LAYER
  5
59
100
AcDbSymbolTableRecord
100
AcDbLayerTableRecord
  2
Texto
 70
0
 62
5
420
255
  6
Continuous
370
25
390
F
  0
LAYER
  5
5A
100
AcDbSymbolTableRecord
100
AcDbLayerTableRecord
  2
Cotas
 70
0
 62
1
420
16711680
  6
Continuous
370
200
390
F
  0
ENDTAB
  0
TABLE
  2
STYLE
  5
3
100
AcDbSymbolTable
 70
18
  0
STYLE
  5
5B
100
AcDbSymbolTableRecord
100
AcDbTextStyleTableRecord
  2
Standard
 70
0
 40
0.0
 41
1.0
 50
0.0
 71
0
 42
2.5
  3

  4

1001
ACAD
1000
txt
1071
0
  0
STYLE
  5
5C
100
AcDbSymbolTableRecord
100
AcDbTextStyleTableRecord
  2
textstyle0
 70
0
 40
0.0
 41
1.0
 50
0.0
 71
0
 42
10.0
  3

  4

1001
ACAD
1000
Arial
1071
0
  0
STYLE
  5
5D
100
AcDbSymbolTableRecord
100
AcDbTextStyleTableRecord
  2
textstyle1
 70
0
 40
0.0
 41
1.0
 50
0.0
 71
0
 42
10.0
  3

  4

1001
ACAD
1000
Arial
1071
0
  0
STYLE
  5
5E
100
AcDbSymbolTableRecord
100
AcDbTextStyleTableRecord
  2
textstyle2
 70
0
 40
0.0
 41
1.0
 50
0.0
 71
0
 42
10.0
  3

  4

1001
ACAD
1000
Arial
1071
0
  0
STYLE
  5
5F
100
AcDbSymbolTableRecord
100
AcDbTextStyleTableRecord
  2
textstyle3
 70
0
 40
0.0
 41
1.0
 50
0.0
 71
0
 42
10.0
  3

  4

1001
ACAD
1000
Arial
1071
0
  0
STYLE
  5
60
100
AcDbSymbolTableRecord
100
AcDbTextStyleTableRecord
  2
textstyle4
 70
0
 40
0.0
 41
1.0
 50
0.0
 71
0
 42
10.0
  3

  4

1001
ACAD
1000
Arial
1071
0
  0
STYLE
  5
61
100
AcDbSymbolTableRecord
100
AcDbTextStyleTableRecord
  2
textstyle5
 70
0
 40
0.0
 41
1.0
 50
0.0
 71
0
 42
10.0
  3

  4

1001
ACAD
1000
Arial
1071
0
  0
STYLE
  5
62
100
AcDbSymbolTableRecord
100
AcDbTextStyleTableRecord
  2
textstyle6
 70
0
 40
0.0
 41
1.0
 50
0.0
 71
0
 42
10.0
  3

  4

1001
ACAD
1000
Arial
1071
0
  0
STYLE
  5
63
100
AcDbSymbolTableRecord
100
AcDbTextStyleTableRecord
  2
textstyle7
 70
0
 40
0.0
 41
1.0
 50
0.0
 71
0
 42
7.0
  3

  4

1001
ACAD
1000
Arial
1071
0
  0
STYLE
  5
64
100
AcDbSymbolTableRecord
100
AcDbTextStyleTableRecord
  2
textstyle8
 70
0
 40
0.0
 41
1.0
 50
0.0
 71
0
 42
7.0
  3

  4

1001
ACAD
1000
Arial
1071
0
  0
STYLE
  5
65
100
AcDbSymbolTableRecord
100
AcDbTextStyleTableRecord
  2
textstyle9
 70
0
 40
0.0
 41
1.0
 50
0.0
 71
0
 42
7.0
  3

  4

1001
ACAD
1000
Arial
1071
0
  0
STYLE
  5
66
100
AcDbSymbolTableRecord
100
AcDbTextStyleTableRecord
  2
textstyle10
 70
0
 40
0.0
 41
1.0
 50
0.0
 71
0
 42
7.0
  3

  4

1001
ACAD
1000
Arial
1071
0
  0
STYLE
  5
67
100
AcDbSymbolTableRecord
100
AcDbTextStyleTableRecord
  2
textstyle11
 70
0
 40
0.0
 41
1.0
 50
0.0
 71
0
 42
7.0
  3

  4

1001
ACAD
1000
Arial
1071
0
  0
STYLE
  5
68
100
AcDbSymbolTableRecord
100
AcDbTextStyleTableRecord
  2
textstyle12
 70
0
 40
0.0
 41
1.0
 50
0.0
 71
0
 42
7.0
  3

  4

1001
ACAD
1000
Arial
1071
0
  0
STYLE
  5
69
100
AcDbSymbolTableRecord
100
AcDbTextStyleTableRecord
  2
textstyle13
 70
0
 40
0.0
 41
1.0
 50
0.0
 71
0
 42
7.0
  3

  4

1001
ACAD
1000
Arial
1071
0
  0
STYLE
  5
6A
100
AcDbSymbolTableRecord
100
AcDbTextStyleTableRecord
  2
textstyle14
 70
0
 40
0.0
 41
1.0
 50
0.0
 71
0
 42
7.0
  3

  4

1001
ACAD
1000
Arial
1071
0
  0
STYLE
  5
6B
100
AcDbSymbolTableRecord
100
AcDbTextStyleTableRecord
  2
textstyle15
 70
0
 40
0.0
 41
1.0
 50
0.0
 71
0
 42
7.0
  3

  4

1001
ACAD
1000
Arial
1071
0
  0
STYLE
  5
6C
100
AcDbSymbolTableRecord
100
AcDbTextStyleTableRecord
  2
textstyle16
 70
0
 40
0.0
 41
1.0
 50
0.0
 71
0
 42
7.0
  3

  4

1001
ACAD
1000
Arial
1071
0
  0
ENDTAB
  0
TABLE
  2
VIEW
  5
6
100
AcDbSymbolTable
 70
0
  0
ENDTAB
  0
TABLE
  2
UCS
  5
7
100
AcDbSymbolTable
 70
0
  0
ENDTAB
  0
TABLE
  2
APPID
  5
9
100
AcDbSymbolTable
 70
1
  0
APPID
  5
12
100
AcDbSymbolTableRecord
100
AcDbRegAppTableRecord
  2
ACAD
 70
0
  0
APPID
  5
6D
100
AcDbSymbolTableRecord
100
AcDbRegAppTableRecord
  2
QCAD
 70
0
  0
ENDTAB
  0
TABLE
  2
DIMSTYLE
  5
A
100
AcDbSymbolTable
 70
1
100
AcDbDimStyleTable
 71
0
  0
DIMSTYLE
105
27
100
AcDbSymbolTableRecord
100
AcDbDimStyleTableRecord
  2
Standard
 41
3.0
 42
1.5
 43
3.75
 44
3.0
 70
0
 73
0
 74
0
 77
1
 78
8
140
7.0
141
2.5
143
0.03937007874016
147
1.5
171
3
172
1
271
2
272
2
274
3
278
44
283
0
284
8
340
5B
  0
ENDTAB
  0
TABLE
  2
BLOCK_RECORD
  5
1
100
AcDbSymbolTable
 70
1
  0
BLOCK_RECORD
  5
1F
100
AcDbSymbolTableRecord
100
AcDbBlockTableRecord
  2
*Model_Space
340
22
  0
BLOCK_RECORD
  5
1B
100
AcDbSymbolTableRecord
100
AcDbBlockTableRecord
  2
*Paper_Space
340
1E
  0
BLOCK_RECORD
  5
23
100
AcDbSymbolTableRecord
100
AcDbBlockTableRecord
  2
*Paper_Space0
340
26
  0
ENDTAB
  0
ENDSEC
  0
SECTION
  2
BLOCKS
  0
BLOCK
  5
20
100
AcDbEntity
  8
0
100
AcDbBlockBegin
  2
*Model_Space
 70
0
 10
0.0
 20
0.0
 30
0.0
  3
*Model_Space
  1

  0
ENDBLK
  5
21
100
AcDbEntity
  8
0
100
AcDbBlockEnd
  0
BLOCK
  5
1C
100
AcDbEntity
 67
1
  8
0
100
AcDbBlockBegin
  2
*Paper_Space
 70
0
 10
0.0
 20
0.0
 30
0.0
  3
*Paper_Space
  1

  0
ENDBLK
  5
1D
100
AcDbEntity
 67
1
  8
0
100
AcDbBlockEnd
  0
BLOCK
  5
24
100
AcDbEntity
  8
0
100
AcDbBlockBegin
  2
*Paper_Space0
 70
0
 10
0.0
 20
0.0
 30
0.0
  3
*Paper_Space0
  1

  0
ENDBLK
  5
25
100
AcDbEntity
  8
0
100
AcDbBlockEnd
  0
ENDSEC
  0
SECTION
  2
ENTITIES
  0
LINE
  5
6E
100
AcDbEntity
  8
Linhas_Visiveis
 62
256
370
-1
 48
1.0
  6
BYLAYER
100
AcDbLine
 10
147.9897599999999045
 20
2.0000000000000142
 30
0.0
 11
147.9897599999999045
 21
30.0000000000000142
 31
0.0
  0
LINE
  5
6F
100
AcDbEntity
  8
Linhas_Visiveis
 62
256
370
-1
 48
1.0
  6
BYLAYER
100
AcDbLine
 10
147.9897599999999045
 20
30.0000000000000142
 30
0.0
 11
87.9897599999999045
 21
30.0000000000000142
 31
0.0
  0
LINE
  5
70
100
AcDbEntity
  8
Linhas_Visiveis
 62
256
370
-1
 48
1.0
  6
BYLAYER
100
AcDbLine
 10
87.9897599999999045
 20
30.0000000000000142
 30
0.0
 11
87.9897599999999045
 21
90.0000000000000142
 31
0.0
  0
LINE
  5
71
100
AcDbEntity
  8
Linhas_Visiveis
 62
256
370
-1
 48
1.0
  6
BYLAYER
100
AcDbLine
 10
87.9897599999999045
 20
90.0000000000000142
 30
0.0
 11
87.9897599999999045
 21
120.0000000000000142
 31
0.0
  0
LINE
  5
72
100
AcDbEntity
  8
Linhas_Visiveis
 62
256
370
-1
 48
1.0
  6
BYLAYER
100
AcDbLine
 10
87.9897599999999045
 20
120.0000000000000142
 30
0.0
 11
20.0
 21
120.0
 31
0.0
  0
LINE
  5
73
100
AcDbEntity
  8
Linhas_Visiveis
 62
256
370
-1
 48
1.0
  6
BYLAYER
100
AcDbLine
 10
147.9897599999999045
 20
2.0000000000000142
 30
0.0
 11
87.9897599999999045
 21
2.0000000000000142
 31
0.0
  0
LINE
  5
74
100
AcDbEntity
  8
Linhas_Visiveis
 62
256
370
-1
 48
1.0
  6
BYLAYER
100
AcDbLine
 10
87.9897599999999045
 20
2.0000000000000142
 30
0.0
 11
65.9897599999999045
 21
2.0000000000000142
 31
0.0
  0
LINE
  5
75
100
AcDbEntity
  8
Linhas_Visiveis
 62
256
370
-1
 48
1.0
  6
BYLAYER
100
AcDbLine
 10
65.9897599999999045
 20
2.0000000000000142
 30
0.0
 11
57.9897599999999045
 21
2.0000000000000142
 31
0.0
  0
LINE
  5
76
100
AcDbEntity
  8
Linhas_Visiveis
 62
256
370
-1
 48
1.0
  6
BYLAYER
100
AcDbLine
 10
57.9897599999999045
 20
2.0000000000000142
 30
0.0
 11
49.9897599999999045
 21
2.0000000000000142
 31
0.0
  0
LINE
  5
77
100
AcDbEntity
  8
Linhas_Visiveis
 62
256
370
-1
 48
1.0
  6
BYLAYER
100
AcDbLine
 10
49.9897599999999045
 20
2.0000000000000142
 30
0.0
 11
27.9897599999999045
 21
2.0000000000000142
 31
0.0
  0
LINE
  5
78
100
AcDbEntity
  8
Linhas_Visiveis
 62
256
370
-1
 48
1.0
  6
BYLAYER
100
AcDbLine
 10
27.9897599999999045
 20
2.0000000000000142
 30
0.0
 11
27.9897599999999045
 21
30.0000000000000142
 31
0.0
  0
LINE
  5
79
100
AcDbEntity
  8
Linhas_Visiveis
 62
256
370
-1
 48
1.0
  6
BYLAYER
100
AcDbLine
 10
27.9897599999999045
 20
30.0000000000000142
 30
0.0
 11
27.9897599999999045
 21
90.0000000000000142
 31
0.0
  0
LINE
  5
7A
100
AcDbEntity
  8
Linhas_Visiveis
 62
256
370
-1
 48
1.0
  6
BYLAYER
100
AcDbLine
 10
20.0
 20
90.0214015999999759
 30
0.0
 11
19.9999999999999858
 21
120.0000000000000142
 31
0.0
  0
LINE
  5
7B
100
AcDbEntity
  8
Linhas_Visiveis
 62
256
370
-1
 48
1.0
  6
BYLAYER
100
AcDbLine
 10
20.0
 20
90.0214015999999759
 30
0.0
 11
20.0
 21
60.0214015999999759
 31
0.0
  0
LINE
  5
7C
100
AcDbEntity
  8
Linhas_Visiveis
 62
256
370
-1
 48
1.0
  6
BYLAYER
100
AcDbLine
 10
75.9897599999999045
 20
18.0000000000000142
 30
0.0
 11
43.9897599999999045
 21
18.0000000000000142
 31
0.0
  0
LINE
  5
7D
100
AcDbEntity
  8
Linhas_Visiveis
 62
256
370
-1
 48
1.0
  6
BYLAYER
100
AcDbLine
 10
43.9897599999999045
 20
18.0000000000000142
 30
0.0
 11
43.9897599999999045
 21
42.0000000000000142
 31
0.0
  0
LINE
  5
7E
100
AcDbEntity
  8
Linhas_Visiveis
 62
256
370
-1
 48
1.0
  6
BYLAYER
100
AcDbLine
 10
43.9897599999999045
 20
42.0000000000000142
 30
0.0
 11
75.9897599999999045
 21
42.0000000000000142
 31
0.0
  0
LINE
  5
7F
100
AcDbEntity
  8
Linhas_Visiveis
 62
256
370
-1
 48
1.0
  6
BYLAYER
100
AcDbLine
 10
75.9897599999999045
 20
42.0000000000000142
 30
0.0
 11
75.9897599999999045
 21
18.0000000000000142
 31
0.0
  0
LINE
  5
80
100
AcDbEntity
  8
Linhas_Visiveis
 62
256
370
-1
 48
1.0
  6
BYLAYER
100
AcDbLine
 10
43.9897599999999045
 20
42.0000000000000142
 30
0.0
 11
59.9897599999999045
 21
42.0000000000000142
 31
0.0
  0
LINE
  5
81
100
AcDbEntity
  8
Linhas_Visiveis
 62
256
370
-1
 48
1.0
  6
BYLAYER
100
AcDbLine
 10
43.9897599999999045
 20
42.0000000000000142
 30
0.0
 11
59.9897599999999045
 21
42.0000000000000142
 31
0.0
  0
LINE
  5
82
100
AcDbEntity
  8
Linhas_Visiveis
 62
256
370
-1
 48
1.0
  6
BYLAYER
100
AcDbLine
 10
63.9897599999999045
 20
42.0000000000000142
 30
0.0
 11
63.9897599999999045
 21
90.0000000000000142
 31
0.0
  0
LINE
  5
83
100
AcDbEntity
  8
Linhas_Visiveis
 62
256
370
-1
 48
1.0
  6
BYLAYER
100
AcDbLine
 10
55.9897599999999045
 20
42.0000000000000142
 30
0.0
 11
55.9897599999999045
 21
90.0000000000000142
 31
0.0
  0
LINE
  5
84
100
AcDbEntity
  8
Linhas_Visiveis
 62
256
370
-1
 48
1.0
  6
BYLAYER
100
AcDbLine
 10
480.0
 20
2.0
 30
0.0
 11
490.0
 21
2.0
 31
0.0
  0
LINE
  5
85
100
AcDbEntity
  8
Linhas_Visiveis
 62
256
370
-1
 48
1.0
  6
BYLAYER
100
AcDbLine
 10
490.0
 20
2.0
 30
0.0
 11
490.0
 21
16.0
 31
0.0
  0
LINE
  5
86
100
AcDbEntity
  8
Linhas_Visiveis
 62
256
370
-1
 48
1.0
  6
BYLAYER
100
AcDbLine
 10
490.0
 20
16.0
 30
0.0
 11
530.0
 21
16.0
 31
0.0
  0
LINE
  5
87
100
AcDbEntity
  8
Linhas_Visiveis
 62
256
370
-1
 48
1.0
  6
BYLAYER
100
AcDbLine
 10
530.0
 20
16.0
 30
0.0
 11
530.0
 21
2.0
 31
0.0
  0
LINE
  5
88
100
AcDbEntity
  8
Linhas_Visiveis
 62
256
370
-1
 48
1.0
  6
BYLAYER
100
AcDbLine
 10
530.0
 20
2.0
 30
0.0
 11
540.0
 21
2.0
 31
0.0
  0
LINE
  5
89
100
AcDbEntity
  8
Linhas_Visiveis
 62
256
370
-1
 48
1.0
  6
BYLAYER
100
AcDbLine
 10
540.0
 20
2.0
 30
0.0
 11
540.0
 21
30.0
 31
0.0
  0
LINE
  5
8A
100
AcDbEntity
  8
Linhas_Visiveis
 62
256
370
-1
 48
1.0
  6
BYLAYER
100
AcDbLine
 10
540.0
 20
30.0
 30
0.0
 11
480.0
 21
30.0
 31
0.0
  0
LINE
  5
8B
100
AcDbEntity
  8
Linhas_Visiveis
 62
256
370
-1
 48
1.0
  6
BYLAYER
100
AcDbLine
 10
480.0
 20
30.0
 30
0.0
 11
480.0
 21
16.0
 31
0.0
  0
LINE
  5
8C
100
AcDbEntity
  8
Linhas_Visiveis
 62
256
370
-1
 48
1.0
  6
BYLAYER
100
AcDbLine
 10
414.0
 20
42.0
 30
0.0
 11
446.0
 21
42.0
 31
0.0
  0
LINE
  5
8D
100
AcDbEntity
  8
Linhas_Visiveis
 62
256
370
-1
 48
1.0
  6
BYLAYER
100
AcDbLine
 10
446.0
 20
42.0
 30
0.0
 11
446.0
 21
30.0
 31
0.0
  0
LINE
  5
8E
100
AcDbEntity
  8
Linhas_Visiveis
 62
256
370
-1
 48
1.0
  6
BYLAYER
100
AcDbLine
 10
446.0
 20
30.0
 30
0.0
 11
480.0
 21
29.9999999999999964
 31
0.0
  0
LINE
  5
8F
100
AcDbEntity
  8
Linhas_Visiveis
 62
256
370
-1
 48
1.0
  6
BYLAYER
100
AcDbLine
 10
480.0
 20
2.0
 30
0.0
 11
480.0
 21
16.0
 31
0.0
  0
LINE
  5
90
100
AcDbEntity
  8
Linhas_Visiveis
 62
256
370
-1
 48
1.0
  6
BYLAYER
100
AcDbLine
 10
480.0
 20
29.9999999999999964
 30
0.0
 11
480.0
 21
90.0
 31
0.0
  0
LINE
  5
91
100
AcDbEntity
  8
Linhas_Visiveis
 62
256
370
-1
 48
1.0
  6
BYLAYER
100
AcDbLine
 10
540.0
 20
29.9999999999999964
 30
0.0
 11
540.0
 21
90.0
 31
0.0
  0
CIRCLE
  5
92
100
AcDbEntity
  8
Linhas_Visiveis
 62
256
370
-1
 48
1.0
  6
BYLAYER
100
AcDbCircle
 10
509.9718144000000279
 20
90.1628159999998786
 30
0.0
 40
30.0
  0
CIRCLE
  5
93
100
AcDbEntity
  8
Linhas_Visiveis
 62
256
370
-1
 48
1.0
  6
BYLAYER
100
AcDbCircle
 10
509.9718144000000279
 20
90.1628159999998786
 30
0.0
 40
16.0
  0
LINE
  5
94
100
AcDbEntity
  8
Linhas_Visiveis
 62
256
370
-1
 48
1.0
  6
BYLAYER
100
AcDbLine
 10
330.0
 20
-20.0
 30
0.0
 11
330.0
 21
-88.0
 31
0.0
  0
LINE
  5
95
100
AcDbEntity
  8
Linhas_Visiveis
 62
256
370
-1
 48
1.0
  6
BYLAYER
100
AcDbLine
 10
330.0
 20
-88.0
 30
0.0
 11
270.0
 21
-88.0
 31
0.0
  0
LINE
  5
96
100
AcDbEntity
  8
Linhas_Visiveis
 62
256
370
-1
 48
1.0
  6
BYLAYER
100
AcDbLine
 10
330.0
 20
-20.0
 30
0.0
 11
270.0
 21
-20.0
 31
0.0
  0
LINE
  5
97
100
AcDbEntity
  8
Linhas_Visiveis
 62
256
370
-1
 48
1.0
  6
BYLAYER
100
AcDbLine
 10
270.0
 20
-20.0
 30
0.0
 11
270.0
 21
-88.0
 31
0.0
  0
LINE
  5
98
100
AcDbEntity
  8
Linhas_Visiveis
 62
256
370
-1
 48
1.0
  6
BYLAYER
100
AcDbLine
 10
270.0
 20
-88.0
 30
0.0
 11
270.0
 21
-148.0
 31
0.0
  0
LINE
  5
99
100
AcDbEntity
  8
Linhas_Visiveis
 62
256
370
-1
 48
1.0
  6
BYLAYER
100
AcDbLine
 10
270.0
 20
-148.0
 30
0.0
 11
330.0
 21
-148.0
 31
0.0
  0
LINE
  5
9A
100
AcDbEntity
  8
Linhas_Visiveis
 62
256
370
-1
 48
1.0
  6
BYLAYER
100
AcDbLine
 10
330.0
 20
-148.0
 30
0.0
 11
330.0
 21
-88.0
 31
0.0
  0
LINE
  5
9B
100
AcDbEntity
  8
Linhas_Invisiveis
 62
256
370
-1
 48
1.0
  6
BYLAYER
100
AcDbLine
 10
147.9897599999999045
 20
16.0000000000000142
 30
0.0
 11
27.9897599999999045
 21
16.0000000000000142
 31
0.0
  0
LINE
  5
9C
100
AcDbEntity
  8
Linhas_Visiveis
 62
256
370
-1
 48
1.0
  6
BYLAYER
100
AcDbLine
 10
284.0
 20
-20.0
 30
0.0
 11
300.0
 21
-20.0
 31
0.0
  0
CIRCLE
  5
9D
100
AcDbEntity
  8
Linhas_Visiveis
 62
256
370
-1
 48
1.0
  6
BYLAYER
100
AcDbCircle
 10
299.5475199999996221
 20
-123.5865599999997926
 30
0.0
 40
9.0
  0
CIRCLE
  5
9E
100
AcDbEntity
  8
Linhas_Visiveis
 62
256
370
-1
 48
1.0
  6
BYLAYER
100
AcDbCircle
 10
220.3141680229205406
 20
-61.9996536709354586
 30
0.0
 40
8.0
  0
LINE
  5
9F
100
AcDbEntity
  8
Linhas_Visiveis
 62
256
370
-1
 48
1.0
  6
BYLAYER
100
AcDbLine
 10
270.0
 20
-78.0
 30
0.0
 11
220.0
 21
-78.0
 31
0.0
  0
CIRCLE
  5
A0
100
AcDbEntity
  8
Linhas_Visiveis
 62
256
370
-1
 48
1.0
  6
BYLAYER
100
AcDbCircle
 10
220.3141680229205406
 20
-61.9996536709354586
 30
0.0
 40
16.0
  0
LINE
  5
A1
100
AcDbEntity
  8
Linhas_Visiveis
 62
256
370
-1
 48
1.0
  6
BYLAYER
100
AcDbLine
 10
270.0
 20
-66.0
 30
0.0
 11
236.0
 21
-66.0
 31
0.0
  0
LINE
  5
A2
100
AcDbEntity
  8
Linhas_Visiveis
 62
256
370
-1
 48
1.0
  6
BYLAYER
100
AcDbLine
 10
270.0
 20
-58.0
 30
0.0
 11
236.0
 21
-58.0
 31
0.0
  0
LINE
  5
A3
100
AcDbEntity
  8
Linhas_Visiveis
 62
256
370
-1
 48
1.0
  6
BYLAYER
100
AcDbLine
 10
236.0
 20
-66.0
 30
0.0
 11
235.8499999999999943
 21
-66.0
 31
0.0
  0
LINE
  5
A4
100
AcDbEntity
  8
Linhas_Visiveis
 62
256
370
-1
 48
1.0
  6
BYLAYER
100
AcDbLine
 10
236.0
 20
-58.0
 30
0.0
 11
235.8499999999999943
 21
-58.0
 31
0.0
  0
LINE
  5
A5
100
AcDbEntity
  8
Linhas_Visiveis
 62
256
370
-1
 48
1.0
  6
BYLAYER
100
AcDbLine
 10
446.0
 20
30.0
 30
0.0
 11
430.0
 21
30.0
 31
0.0
  0
LINE
  5
A6
100
AcDbEntity
  8
Linhas_Invisiveis
 62
256
370
-1
 48
1.0
  6
BYLAYER
100
AcDbLine
 10
280.0
 20
-148.0
 30
0.0
 11
280.0
 21
-88.0
 31
0.0
  0
LINE
  5
A7
100
AcDbEntity
  8
Linhas_Invisiveis
 62
256
370
-1
 48
1.0
  6
BYLAYER
100
AcDbLine
 10
320.0
 20
-148.0
 30
0.0
 11
320.0
 21
-88.0
 31
0.0
  0
LINE
  5
A8
100
AcDbEntity
  8
Linhas_Invisiveis
 62
256
370
-1
 48
1.0
  6
BYLAYER
100
AcDbLine
 10
87.9897599999999045
 20
16.0000000000000142
 30
0.0
 11
87.9897599999999045
 21
2.0000000000000142
 31
0.0
  0
LINE
  5
A9
100
AcDbEntity
  8
Linhas_Invisiveis
 62
256
370
-1
 48
1.0
  6
BYLAYER
100
AcDbLine
 10
270.0
 20
-28.0
 30
0.0
 11
330.0
 21
-28.0
 31
0.0
  0
LINE
  5
AA
100
AcDbEntity
  8
0
 62
256
370
-1
 48
1.0
  6
BYLAYER
100
AcDbLine
 10
-100.0
 20
200.0
 30
0.0
 11
700.0
 21
200.0
 31
0.0
  0
LINE
  5
AB
100
AcDbEntity
  8
0
 62
256
370
-1
 48
1.0
  6
BYLAYER
100
AcDbLine
 10
700.0
 20
200.0
 30
0.0
 11
700.0
 21
-200.0
 31
0.0
  0
LINE
  5
AC
100
AcDbEntity
  8
0
 62
256
370
-1
 48
1.0
  6
BYLAYER
100
AcDbLine
 10
700.0
 20
-200.0
 30
0.0
 11
-100.0
 21
-200.0
 31
0.0
  0
LINE
  5
AD
100
AcDbEntity
  8
0
 62
256
370
-1
 48
1.0
  6
BYLAYER
100
AcDbLine
 10
-100.0
 20
-200.0
 30
0.0
 11
-100.0
 21
200.0
 31
0.0
  0
DIMENSION
  5
AE
100
AcDbEntity
  8
Cotas
 62
256
370
-1
 48
1.0
  6
BYLAYER
100
AcDbDimension
 10
480.0
 20
-13.6899162931199285
 30
0.0
 11
485.4712319999987358
 21
-9.0616699551743949
 31
0.0
 70
129
 71
8
 72
2
 74
0
 75
0
 41
1.0
 42
0.0
  1

  3
Standard
100
AcDbAlignedDimension
 13
480.0
 23
2.0
 33
0.0
 14
490.0
 24
2.0
 34
0.0
1001
ACAD
1000
DSTYLE
1002
{
1070
279
1070
2
1070
144
1040
1.0
1070
40
1040
1.0
1002
}
  0
DIMENSION
  5
AF
100
AcDbEntity
  8
Cotas
 62
256
370
-1
 48
1.0
  6
BYLAYER
100
AcDbDimension
 10
530.0
 20
-13.5406459551743836
 30
0.0
 11
535.7352959999985842
 21
-8.8128379551743876
 31
0.0
 70
129
 71
8
 72
2
 74
0
 75
0
 41
1.0
 42
0.0
  1

  3
Standard
100
AcDbAlignedDimension
 13
530.0
 23
2.0
 33
0.0
 14
540.0
 24
2.0
 34
0.0
1001
ACAD
1000
DSTYLE
1002
{
1070
279
1070
2
1070
144
1040
1.0
1070
40
1040
1.0
1002
}
  0
DIMENSION
  5
B0
100
AcDbEntity
  8
Cotas
 62
256
370
-1
 48
1.0
  6
BYLAYER
100
AcDbDimension
 10
480.0
 20
-30.0
 30
0.0
 11
510.0
 21
-25.0
 31
0.0
 70
1
 71
8
 72
2
 74
0
 75
0
 41
1.0
 42
0.0
  1

  3
Standard
100
AcDbAlignedDimension
 13
480.0
 23
2.0
 33
0.0
 14
540.0
 24
2.0
 34
0.0
1001
ACAD
1000
DSTYLE
1002
{
1070
144
1040
1.0
1070
40
1040
1.0
1002
}
  0
DIMENSION
  5
B1
100
AcDbEntity
  8
Cotas
 62
256
370
-1
 48
1.0
  6
BYLAYER
100
AcDbDimension
 10
554.4828799999986586
 20
2.0
 30
0.0
 11
549.4828799999986586
 21
16.0
 31
0.0
 70
1
 71
8
 72
2
 74
0
 75
0
 41
1.0
 42
0.0
  1

  3
Standard
100
AcDbAlignedDimension
 13
540.0
 23
2.0
 33
0.0
 14
540.0
 24
30.0
 34
0.0
1001
ACAD
1000
DSTYLE
1002
{
1070
144
1040
1.0
1070
40
1040
1.0
1002
}
  0
LINE
  5
B2
100
AcDbEntity
  8
Linhas_Visiveis
 62
256
370
-1
 48
1.0
  6
BYLAYER
100
AcDbLine
 10
480.0
 20
2.0
 30
0.0
 11
480.0
 21
18.0
 31
0.0
  0
LINE
  5
B3
100
AcDbEntity
  8
Linhas_Visiveis
 62
256
370
-1
 48
1.0
  6
BYLAYER
100
AcDbLine
 10
480.0
 20
18.0
 30
0.0
 11
414.0
 21
18.0
 31
0.0
  0
DIMENSION
  5
B4
100
AcDbEntity
  8
Cotas
 62
256
370
-1
 48
1.0
  6
BYLAYER
100
AcDbDimension
 10
470.0
 20
18.0
 30
0.0
 11
465.0
 21
10.0
 31
0.0
 70
1
 71
8
 72
2
 74
0
 75
0
 41
1.0
 42
0.0
  1

  3
Standard
100
AcDbAlignedDimension
 13
480.0
 23
18.0
 33
0.0
 14
480.0
 24
2.0
 34
0.0
1001
ACAD
1000
DSTYLE
1002
{
1070
144
1040
1.0
1070
40
1040
1.0
1002
}
  0
LINE
  5
B5
100
AcDbEntity
  8
Linhas_Visiveis
 62
256
370
-1
 48
1.0
  6
BYLAYER
100
AcDbLine
 10
414.0
 20
18.0
 30
0.0
 11
414.0
 21
42.0
 31
0.0
  0
DIMENSION
  5
B6
100
AcDbEntity
  8
Cotas
 62
256
370
-1
 48
1.0
  6
BYLAYER
100
AcDbDimension
 10
401.0
 20
42.0
 30
0.0
 11
396.0
 21
30.0
 31
0.0
 70
1
 71
8
 72
2
 74
0
 75
0
 41
1.0
 42
0.0
  1

  3
Standard
100
AcDbAlignedDimension
 13
414.0
 23
42.0
 33
0.0
 14
414.0
 24
18.0
 34
0.0
1001
ACAD
1000
DSTYLE
1002
{
1070
144
1040
1.0
1070
40
1040
1.0
1002
}
  0
DIMENSION
  5
B7
100
AcDbEntity
  8
Cotas
 62
256
370
-1
 48
1.0
  6
BYLAYER
100
AcDbDimension
 10
414.0
 20
68.4536831999999151
 30
0.0
 11
430.0
 21
73.4536831999999151
 31
0.0
 70
1
 71
8
 72
2
 74
0
 75
0
 41
1.0
 42
0.0
  1

  3
Standard
100
AcDbAlignedDimension
 13
414.0
 23
42.0
 33
0.0
 14
446.0
 24
42.0
 34
0.0
1001
ACAD
1000
DSTYLE
1002
{
1070
144
1040
1.0
1070
40
1040
1.0
1002
}
  0
DIMENSION
  5
B8
100
AcDbEntity
  8
Cotas
 62
256
370
-1
 48
1.0
  6
BYLAYER
100
AcDbDimension
 10
560.0
 20
90.0
 30
0.0
 11
555.0
 21
60.0
 31
0.0
 70
1
 71
8
 72
2
 74
0
 75
0
 41
1.0
 42
0.0
  1

  3
Standard
100
AcDbAlignedDimension
 13
540.0
 23
90.0
 33
0.0
 14
540.0
 24
30.0
 34
0.0
1001
ACAD
1000
DSTYLE
1002
{
1070
144
1040
1.0
1070
40
1040
1.0
1002
}
  0
DIMENSION
  5
B9
100
AcDbEntity
  8
Cotas
 62
256
370
-1
 48
1.0
  6
BYLAYER
100
AcDbDimension
 10
270.0
 20
-165.1129712639995546
 30
0.0
 11
300.0
 21
-160.1129712639995546
 31
0.0
 70
1
 71
8
 72
2
 74
0
 75
0
 41
1.0
 42
0.0
  1

  3
Standard
100
AcDbAlignedDimension
 13
270.0
 23
-148.0
 33
0.0
 14
330.0
 24
-148.0
 34
0.0
1001
ACAD
1000
DSTYLE
1002
{
1070
144
1040
1.0
1070
40
1040
1.0
1002
}
  0
DIMENSION
  5
BA
100
AcDbEntity
  8
Cotas
 62
256
370
-1
 48
1.0
  6
BYLAYER
100
AcDbDimension
 10
270.0
 20
-159.0833556479995821
 30
0.0
 11
275.2967103999993128
 21
-153.7781759999995757
 31
0.0
 70
129
 71
8
 72
2
 74
0
 75
0
 41
1.0
 42
0.0
  1

  3
Standard
100
AcDbAlignedDimension
 13
270.0
 23
-148.0
 33
0.0
 14
280.0
 24
-148.0
 34
0.0
1001
ACAD
1000
DSTYLE
1002
{
1070
279
1070
2
1070
144
1040
1.0
1070
40
1040
1.0
1002
}
  0
DIMENSION
  5
BB
100
AcDbEntity
  8
Cotas
 62
256
370
-1
 48
1.0
  6
BYLAYER
100
AcDbDimension
 10
320.0
 20
-159.0833556479995821
 30
0.0
 11
325.4612415999991413
 21
-153.4795775999995726
 31
0.0
 70
129
 71
8
 72
2
 74
0
 75
0
 41
1.0
 42
0.0
  1

  3
Standard
100
AcDbAlignedDimension
 13
320.0
 23
-148.0
 33
0.0
 14
330.0
 24
-148.0
 34
0.0
1001
ACAD
1000
DSTYLE
1002
{
1070
279
1070
2
1070
144
1040
1.0
1070
40
1040
1.0
1002
}
  0
DIMENSION
  5
BC
100
AcDbEntity
  8
Cotas
 62
256
370
-1
 48
1.0
  6
BYLAYER
100
AcDbDimension
 10
355.1648808959990902
 20
-148.0
 30
0.0
 11
350.1648808959990902
 21
-118.0
 31
0.0
 70
1
 71
8
 72
2
 74
0
 75
0
 41
1.0
 42
0.0
  1

  3
Standard
100
AcDbAlignedDimension
 13
330.0
 23
-148.0
 33
0.0
 14
330.0
 24
-88.0
 34
0.0
1001
ACAD
1000
DSTYLE
1002
{
1070
144
1040
1.0
1070
40
1040
1.0
1002
}
  0
DIMENSION
  5
BD
100
AcDbEntity
  8
Cotas
 62
256
370
-1
 48
1.0
  6
BYLAYER
100
AcDbDimension
 10
355.1648808959990902
 20
-88.0
 30
0.0
 11
350.1648808959990902
 21
-54.0
 31
0.0
 70
1
 71
8
 72
2
 74
0
 75
0
 41
1.0
 42
0.0
  1

  3
Standard
100
AcDbAlignedDimension
 13
330.0
 23
-88.0
 33
0.0
 14
330.0
 24
-20.0
 34
0.0
1001
ACAD
1000
DSTYLE
1002
{
1070
144
1040
1.0
1070
40
1040
1.0
1002
}
  0
DIMENSION
  5
BE
100
AcDbEntity
  8
Cotas
 62
256
370
-1
 48
1.0
  6
BYLAYER
100
AcDbDimension
 10
260.0
 20
-20.0
 30
0.0
 11
255.0
 21
-24.0
 31
0.0
 70
1
 71
8
 72
2
 74
0
 75
0
 41
1.0
 42
0.0
  1

  3
Standard
100
AcDbAlignedDimension
 13
270.0
 23
-20.0
 33
0.0
 14
270.0
 24
-28.0
 34
0.0
1001
ACAD
1000
DSTYLE
1002
{
1070
144
1040
1.0
1070
40
1040
1.0
1002
}
  0
DIMENSION
  5
BF
100
AcDbEntity
  8
Cotas
 62
256
370
-1
 48
1.0
  6
BYLAYER
100
AcDbDimension
 10
260.0
 20
-28.0
 30
0.0
 11
255.0
 21
-43.0
 31
0.0
 70
1
 71
8
 72
2
 74
0
 75
0
 41
1.0
 42
0.0
  1

  3
Standard
100
AcDbAlignedDimension
 13
270.0
 23
-28.0
 33
0.0
 14
270.0
 24
-58.0
 34
0.0
1001
ACAD
1000
DSTYLE
1002
{
1070
144
1040
1.0
1070
40
1040
1.0
1002
}
  0
DIMENSION
  5
C0
100
AcDbEntity
  8
Cotas
 62
256
370
-1
 48
1.0
  6
BYLAYER
100
AcDbDimension
 10
270.0
 20
-100.0
 30
0.0
 11
245.0
 21
-95.0
 31
0.0
 70
1
 71
8
 72
2
 74
0
 75
0
 41
1.0
 42
0.0
  1

  3
Standard
100
AcDbAlignedDimension
 13
270.0
 23
-78.0
 33
0.0
 14
220.0
 24
-78.0
 34
0.0
1001
ACAD
1000
DSTYLE
1002
{
1070
144
1040
1.0
1070
40
1040
1.0
1002
}
  0
DIMENSION
  5
C1
100
AcDbEntity
  8
Cotas
 62
256
370
-1
 48
1.0
  6
BYLAYER
100
AcDbDimension
 10
160.0
 20
30.0000000000000142
 30
0.0
 11
155.0
 21
16.0000000000000142
 31
0.0
 70
1
 71
8
 72
2
 74
0
 75
0
 41
1.0
 42
0.0
  1

  3
Standard
100
AcDbAlignedDimension
 13
147.9897599999999045
 23
30.0000000000000178
 33
0.0
 14
147.9897599999999045
 24
2.0000000000000142
 34
0.0
1001
ACAD
1000
DSTYLE
1002
{
1070
144
1040
1.0
1070
40
1040
1.0
1002
}
  0
DIMENSION
  5
C2
100
AcDbEntity
  8
Cotas
 62
256
370
-1
 48
1.0
  6
BYLAYER
100
AcDbDimension
 10
147.9897599999999045
 20
-10.0
 30
0.0
 11
117.9897599999999045
 21
-5.0
 31
0.0
 70
1
 71
8
 72
2
 74
0
 75
0
 41
1.0
 42
0.0
  1

  3
Standard
100
AcDbAlignedDimension
 13
147.9897599999999045
 23
2.0000000000000142
 33
0.0
 14
87.9897599999999045
 24
2.0000000000000142
 34
0.0
1001
ACAD
1000
DSTYLE
1002
{
1070
144
1040
1.0
1070
40
1040
1.0
1002
}
  0
DIMENSION
  5
C3
100
AcDbEntity
  8
Cotas
 62
256
370
-1
 48
1.0
  6
BYLAYER
100
AcDbDimension
 10
87.9897599999999045
 20
-10.0
 30
0.0
 11
57.9897599999999045
 21
-5.0
 31
0.0
 70
1
 71
8
 72
2
 74
0
 75
0
 41
1.0
 42
0.0
  1

  3
Standard
100
AcDbAlignedDimension
 13
87.9897599999999045
 23
2.0000000000000142
 33
0.0
 14
27.9897599999999045
 24
2.0000000000000142
 34
0.0
1001
ACAD
1000
DSTYLE
1002
{
1070
144
1040
1.0
1070
40
1040
1.0
1002
}
  0
DIMENSION
  5
C4
100
AcDbEntity
  8
Cotas
 62
256
370
-1
 48
1.0
  6
BYLAYER
100
AcDbDimension
 10
17.1992678399999512
 20
2.0000000000000155
 30
0.0
 11
12.1992678399999477
 21
9.0000000000000142
 31
0.0
 70
1
 71
8
 72
2
 74
0
 75
0
 41
1.0
 42
0.0
  1

  3
Standard
100
AcDbAlignedDimension
 13
27.9897599999999045
 23
2.0000000000000142
 33
0.0
 14
27.9897599999999009
 24
16.0000000000000142
 34
0.0
1001
ACAD
1000
DSTYLE
1002
{
1070
144
1040
1.0
1070
40
1040
1.0
1002
}
  0
LINE
  5
C5
100
AcDbEntity
  8
Linhas_Visiveis
 62
256
370
-1
 48
1.0
  6
BYLAYER
100
AcDbLine
 10
27.9897599999999045
 20
60.0000000000000142
 30
0.0
 11
19.9897599999999045
 21
60.0000000000000142
 31
0.0
  0
DIMENSION
  5
C6
100
AcDbEntity
  8
Cotas
 62
256
370
-1
 48
1.0
  6
BYLAYER
100
AcDbDimension
 10
5.9512392674897399
 20
60.0214015999999759
 30
0.0
 11
0.9512392674897399
 21
90.0214015999999759
 31
0.0
 70
1
 71
8
 72
2
 74
0
 75
0
 41
1.0
 42
0.0
  1

  3
Standard
100
AcDbAlignedDimension
 13
20.0
 23
60.0214015999999759
 33
0.0
 14
20.0
 24
120.0214015999999759
 34
0.0
1001
ACAD
1000
DSTYLE
1002
{
1070
144
1040
1.0
1070
40
1040
1.0
1002
}
  0
DIMENSION
  5
C7
100
AcDbEntity
  8
Cotas
 62
256
370
-1
 48
1.0
  6
BYLAYER
100
AcDbDimension
 10
19.9999999999999822
 20
135.7931519999996794
 30
0.0
 11
53.9999999999999858
 21
140.7931519999996794
 31
0.0
 70
1
 71
8
 72
2
 74
0
 75
0
 41
1.0
 42
0.0
  1

  3
Standard
100
AcDbAlignedDimension
 13
19.9999999999999822
 23
119.9999999999999858
 33
0.0
 14
87.9999999999999858
 24
119.9999999999999858
 34
0.0
1001
ACAD
1000
DSTYLE
1002
{
1070
144
1040
1.0
1070
40
1040
1.0
1002
}
  0
LINE
  5
C8
100
AcDbEntity
  8
Linhas_Visiveis
 62
256
370
-1
 48
1.0
  6
BYLAYER
100
AcDbLine
 10
480.6527220514096825
 20
96.5181935540742302
 30
0.0
 11
446.0
 21
42.0
 31
0.0
  0
LINE
  5
C9
100
AcDbEntity
  8
0
 62
256
370
-1
 48
1.0
  6
BYLAYER
100
AcDbLine
 10
-100.0
 20
200.0
 30
0.0
 11
-100.0
 21
225.0000000000000284
 31
0.0
  0
LINE
  5
CA
100
AcDbEntity
  8
0
 62
256
370
-1
 48
1.0
  6
BYLAYER
100
AcDbLine
 10
-100.0
 20
225.0000000000000284
 30
0.0
 11
700.0
 21
225.0000000000000284
 31
0.0
  0
LINE
  5
CB
100
AcDbEntity
  8
0
 62
256
370
-1
 48
1.0
  6
BYLAYER
100
AcDbLine
 10
700.0
 20
225.0000000000000284
 30
0.0
 11
700.0
 21
200.0
 31
0.0
  0
LINE
  5
CC
100
AcDbEntity
  8
0
 62
256
370
-1
 48
1.0
  6
BYLAYER
100
AcDbLine
 10
-100.0
 20
-200.0
 30
0.0
 11
-100.0
 21
-220.0
 31
0.0
  0
LINE
  5
CD
100
AcDbEntity
  8
0
 62
256
370
-1
 48
1.0
  6
BYLAYER
100
AcDbLine
 10
-100.0
 20
-220.0
 30
0.0
 11
-100.0
 21
-225.0
 31
0.0
  0
LINE
  5
CE
100
AcDbEntity
  8
0
 62
256
370
-1
 48
1.0
  6
BYLAYER
100
AcDbLine
 10
700.0
 20
-200.0
 30
0.0
 11
700.0
 21
-225.0
 31
0.0
  0
LINE
  5
CF
100
AcDbEntity
  8
0
 62
256
370
-1
 48
1.0
  6
BYLAYER
100
AcDbLine
 10
700.0
 20
-225.0
 30
0.0
 11
-100.0
 21
-225.0
 31
0.0
  0
MTEXT
  5
D0
100
AcDbEntity
  8
Texto
 62
256
370
-1
 48
1.0
  6
BYLAYER
100
AcDbMText
 10
180.0
 20
190.0
 30
0.0
 40
10.0
 41
0.0
 71
1
 72
1
  1
Proje\U+00e7\U+00e3o Multivista de Pe\U+00e7a Mec\U+00e2nica
  7
textstyle2
 50
0.0
 73
2
 44
1.0
  0
MTEXT
  5
D1
100
AcDbEntity
  8
Texto
 62
256
370
-1
 48
1.0
  6
BYLAYER
100
AcDbMText
 10
290.0
 20
170.0
 30
0.0
 40
10.0
 41
0.0
 71
2
 72
1
  1
Grupo : Alvaro Davi Santos Alves\PPedro Henrique Sena Lima
  7
textstyle1
 50
0.0
 73
2
 44
1.0
  0
MTEXT
  5
D2
100
AcDbEntity
  8
Texto
 62
256
370
-1
 48
1.0
  6
BYLAYER
100
AcDbMText
 10
-50.0
 20
90.0
 30
0.0
 40
10.0
 41
0.0
 71
2
 72
1
  1
Vista Lateral
  7
textstyle0
 50
0.0
 73
2
 44
1.0
  0
MTEXT
  5
D3
100
AcDbEntity
  8
Texto
 62
256
370
-1
 48
1.0
  6
BYLAYER
100
AcDbMText
 10
624.7462050201582997
 20
74.1968447914664466
 30
0.0
 40
10.0
 41
0.0
 71
2
 72
1
  1
Vista Frontal
  7
textstyle6
 50
0.0
 73
2
 44
1.0
  0
MTEXT
  5
D4
100
AcDbEntity
  8
Texto
 62
256
370
-1
 48
1.0
  6
BYLAYER
100
AcDbMText
 10
300.0
 20
30.0
 30
0.0
 40
10.0
 41
0.0
 71
2
 72
1
  1
Vista Superior
  7
textstyle5
 50
0.0
 73
2
 44
1.0
  0
MTEXT
  5
D5
100
AcDbEntity
  8
Texto
 62
256
370
-1
 48
1.0
  6
BYLAYER
100
AcDbMText
 10
450.0
 20
170.0
 30
0.0
 40
10.0
 41
0.0
 71
2
 72
1
  1
2020101874
  7
textstyle4
 50
0.0
 73
2
 44
1.0
  0
MTEXT
  5
D6
100
AcDbEntity
  8
Texto
 62
256
370
-1
 48
1.0
  6
BYLAYER
100
AcDbMText
 10
450.0
 20
150.0
 30
0.0
 40
10.0
 41
0.0
 71
2
 72
1
  1
2020100931
  7
textstyle3
 50
0.0
 73
2
 44
1.0
  0
LEADER
  5
D7
100
AcDbEntity
  8
Cotas
 62
256
370
-1
 48
1.0
  6
BYLAYER
100
AcDbLeader
  3
Standard
 71
1
 72
0
 73
3
 74
0
 75
0
 40
1.0
 41
10.0
 76
3
 10
525.9718144000000848
 20
90.1628159999998786
 10
541.2095999999985452
 20
102.6431999999997373
 10
558.627839999998514
 20
102.6431999999997373
1001
ACAD
1000
DSTYLE
1002
{
1070
40
1040
1.0
1002
}
  0
LEADER
  5
D8
100
AcDbEntity
  8
Cotas
 62
256
370
-1
 48
1.0
  6
BYLAYER
100
AcDbLeader
  3
Standard
 71
1
 72
0
 73
3
 74
0
 75
0
 40
1.0
 41
10.0
 76
3
 10
212.3141680229205406
 20
-61.9996536709354586
 10
195.9551999999994507
 20
-70.2950399999998154
 10
184.9651199999994731
 20
-70.2950399999998154
1001
ACAD
1000
DSTYLE
1002
{
1070
40
1040
1.0
1002
}
  0
LEADER
  5
D9
100
AcDbEntity
  8
Cotas
 62
256
370
-1
 48
1.0
  6
BYLAYER
100
AcDbLeader
  3
Standard
 71
1
 72
0
 73
3
 74
0
 75
0
 40
1.0
 41
10.0
 76
3
 10
210.0
 20
-50.0
 10
198.4435199999994381
 20
-42.3014399999998858
 10
186.0019199999994726
 20
-42.3014399999998858
1001
ACAD
1000
DSTYLE
1002
{
1070
40
1040
1.0
1002
}
  0
LEADER
  5
DA
100
AcDbEntity
  8
Cotas
 62
256
370
-1
 48
1.0
  6
BYLAYER
100
AcDbLeader
  3
Standard
 71
1
 72
0
 73
3
 74
0
 75
0
 40
1.0
 41
10.0
 76
3
 10
484.6714214399986531
 20
105.6408883199997319
 10
460.0
 20
110.0
 10
430.0
 20
110.0
1001
ACAD
1000
DSTYLE
1002
{
1070
40
1040
1.0
1002
}
  0
MTEXT
  5
DB
100
AcDbEntity
  8
Cotas
 62
256
370
-1
 48
1.0
  6
BYLAYER
100
AcDbMText
 10
443.9162879999988149
 20
117.2126143999997225
 30
0.0
 40
7.0
 41
0.0
 71
2
 72
1
  1
60
  7
textstyle7
 50
0.0
 73
2
 44
1.0
  0
MTEXT
  5
DC
100
AcDbEntity
  8
Cotas
 62
256
370
-1
 48
1.0
  6
BYLAYER
100
AcDbMText
 10
552.6558719999985669
 20
104.0117759999997418
 30
0.0
 40
7.0
 41
0.0
 71
8
 72
1
  1
32
  7
textstyle8
 50
0.0
 73
2
 44
1.0
  0
MTEXT
  5
DD
100
AcDbEntity
  8
Cotas
 62
256
370
-1
 48
1.0
  6
BYLAYER
100
AcDbMText
 10
303.5
 20
-104.0
 30
0.0
 40
7.0
 41
0.0
 71
8
 72
1
  1
18
  7
textstyle16
 50
0.0
 73
2
 44
1.0
  0
MTEXT
  5
DE
100
AcDbEntity
  8
Cotas
 62
256
370
-1
 48
1.0
  6
BYLAYER
100
AcDbMText
 10
193.0
 20
-35.0
 30
0.0
 40
7.0
 41
0.0
 71
2
 72
1
  1
32
  7
textstyle10
 50
0.0
 73
2
 44
1.0
  0
MTEXT
  5
DF
100
AcDbEntity
  8
Cotas
 62
256
370
-1
 48
1.0
  6
BYLAYER
100
AcDbMText
 10
192.0
 20
-63.0
 30
0.0
 40
7.0
 41
0.0
 71
2
 72
1
  1
16
  7
textstyle9
 50
0.0
 73
2
 44
1.0
  0
MTEXT
  5
E0
100
AcDbEntity
  8
Cotas
 62
256
370
-1
 48
1.0
  6
BYLAYER
100
AcDbMText
 10
434.9583359999988943
 20
117.448703999999708
 30
0.0
 40
7.0
 41
0.0
 71
2
 72
1
  1
%%c
  7
textstyle12
 50
0.0
 73
2
 44
1.0
  0
MTEXT
  5
E1
100
AcDbEntity
  8
Cotas
 62
256
370
-1
 48
1.0
  6
BYLAYER
100
AcDbMText
 10
542.7025919999986172
 20
110.9790719999997179
 30
0.0
 40
7.0
 41
0.0
 71
2
 72
1
  1
%%c
  7
textstyle11
 50
0.0
 73
2
 44
1.0
  0
MTEXT
  5
E2
100
AcDbEntity
  8
Cotas
 62
256
370
-1
 48
1.0
  6
BYLAYER
100
AcDbMText
 10
296.0639999999992824
 20
-103.6799999999997652
 30
0.0
 40
7.0
 41
0.0
 71
8
 72
1
  1
%%c
  7
textstyle15
 50
0.0
 73
2
 44
1.0
  0
LINE
  5
E3
100
AcDbEntity
  8
Cotas
 62
256
370
-1
 48
1.0
  6
BYLAYER
100
AcDbLine
 10
186.0019199999994726
 20
-42.3014399999998858
 30
0.0
 11
181.0019199999994726
 21
-42.3014399999998858
 31
0.0
  0
LINE
  5
E4
100
AcDbEntity
  8
Cotas
 62
256
370
-1
 48
1.0
  6
BYLAYER
100
AcDbLine
 10
184.9651199999994731
 20
-70.2950399999998154
 30
0.0
 11
179.9651199999994731
 21
-70.2950399999998154
 31
0.0
  0
MTEXT
  5
E5
100
AcDbEntity
  8
Cotas
 62
256
370
-1
 48
1.0
  6
BYLAYER
100
AcDbMText
 10
184.5599999999995475
 20
-34.9199999999999093
 30
0.0
 40
7.0
 41
0.0
 71
2
 72
1
  1
%%c
  7
textstyle13
 50
0.0
 73
2
 44
1.0
  0
MTEXT
  5
E6
100
AcDbEntity
  8
Cotas
 62
256
370
-1
 48
1.0
  6
BYLAYER
100
AcDbMText
 10
184.0799999999995578
 20
-62.8799999999998391
 30
0.0
 40
7.0
 41
0.0
 71
2
 72
1
  1
%%c
  7
textstyle14
 50
0.0
 73
2
 44
1.0
  0
LINE
  5
E7
100
AcDbEntity
  8
Linhas_Invisiveis
 62
256
370
-1
 48
1.0
  6
BYLAYER
100
AcDbLine
 10
284.0
 20
-20.0
 30
0.0
 11
284.0
 21
-88.0
 31
0.0
  0
LINE
  5
E8
100
AcDbEntity
  8
Linhas_Invisiveis
 62
256
370
-1
 48
1.0
  6
BYLAYER
100
AcDbLine
 10
316.0
 20
-20.0
 30
0.0
 11
316.0
 21
-88.0
 31
0.0
  0
DIMENSION
  5
E9
100
AcDbEntity
  8
Cotas
 62
256
370
-1
 48
1.0
  6
BYLAYER
100
AcDbDimension
 10
270.0
 20
-12.2767592592592294
 30
0.0
 11
277.0
 21
-7.2767592592592294
 31
0.0
 70
1
 71
8
 72
2
 74
0
 75
0
 41
1.0
 42
0.0
  1

  3
Standard
100
AcDbAlignedDimension
 13
270.0
 23
-20.0
 33
0.0
 14
284.0
 24
-20.0
 34
0.0
1001
ACAD
1000
DSTYLE
1002
{
1070
144
1040
1.0
1070
40
1040
1.0
1002
}
  0
DIMENSION
  5
EA
100
AcDbEntity
  8
Cotas
 62
256
370
-1
 48
1.0
  6
BYLAYER
100
AcDbDimension
 10
316.0
 20
-12.132759259259231
 30
0.0
 11
323.0
 21
-7.132759259259231
 31
0.0
 70
1
 71
8
 72
2
 74
0
 75
0
 41
1.0
 42
0.0
  1

  3
Standard
100
AcDbAlignedDimension
 13
316.0
 23
-20.0
 33
0.0
 14
330.0
 24
-20.0
 34
0.0
1001
ACAD
1000
DSTYLE
1002
{
1070
144
1040
1.0
1070
40
1040
1.0
1002
}
  0
DIMENSION
  5
EB
100
AcDbEntity
  8
Cotas
 62
256
370
-1
 48
1.0
  6
BYLAYER
100
AcDbDimension
 10
284.0
 20
-12.132759259259231
 30
0.0
 11
300.0
 21
-7.132759259259231
 31
0.0
 70
1
 71
8
 72
2
 74
0
 75
0
 41
1.0
 42
0.0
  1

  3
Standard
100
AcDbAlignedDimension
 13
284.0
 23
-20.0
 33
0.0
 14
316.0
 24
-20.0
 34
0.0
1001
ACAD
1000
DSTYLE
1002
{
1070
144
1040
1.0
1070
40
1040
1.0
1002
}
  0
LINE
  5
EC
100
AcDbEntity
  8
Linhas_Invisiveis
 62
256
370
-1
 48
1.0
  6
BYLAYER
100
AcDbLine
 10
422.0
 20
42.0
 30
0.0
 11
422.0
 21
18.0
 31
0.0
  0
LINE
  5
ED
100
AcDbEntity
  8
Linhas_Invisiveis
 62
256
370
-1
 48
1.0
  6
BYLAYER
100
AcDbLine
 10
438.0
 20
42.0
 30
0.0
 11
438.0
 21
30.0
 31
0.0
  0
LINE
  5
EE
100
AcDbEntity
  8
Linhas_Invisiveis
 62
256
370
-1
 48
1.0
  6
BYLAYER
100
AcDbLine
 10
438.0
 20
30.0
 30
0.0
 11
438.0
 21
18.0
 31
0.0
  0
LINE
  5
EF
100
AcDbEntity
  8
Linhas_Invisiveis
 62
256
370
-1
 48
1.0
  6
BYLAYER
100
AcDbLine
 10
51.9897599999999045
 20
42.0000000000000142
 30
0.0
 11
51.9897599999999045
 21
18.0000000000000142
 31
0.0
  0
LINE
  5
F0
100
AcDbEntity
  8
Linhas_Invisiveis
 62
256
370
-1
 48
1.0
  6
BYLAYER
100
AcDbLine
 10
67.9897599999999045
 20
18.0000000000000142
 30
0.0
 11
67.9897599999999045
 21
42.0000000000000142
 31
0.0
  0
LINE
  5
F1
100
AcDbEntity
  8
Linhas_Invisiveis
 62
256
370
-1
 48
1.0
  6
BYLAYER
100
AcDbLine
 10
19.9999999999999822
 20
105.9999999999999858
 30
0.0
 11
87.9897599999999045
 21
105.9999999999999858
 31
0.0
  0
LINE
  5
F2
100
AcDbEntity
  8
Linhas_Invisiveis
 62
256
370
-1
 48
1.0
  6
BYLAYER
100
AcDbLine
 10
19.9999999999999893
 20
73.9999999999999858
 30
0.0
 11
87.9897599999999045
 21
73.9999999999999858
 31
0.0
  0
DIMENSION
  5
F3
100
AcDbEntity
  8
Cotas
 62
256
370
-1
 48
1.0
  6
BYLAYER
100
AcDbDimension
 10
100.0
 20
120.0000000000000142
 30
0.0
 11
95.0
 21
113.0
 31
0.0
 70
1
 71
8
 72
2
 74
0
 75
0
 41
1.0
 42
0.0
  1

  3
Standard
100
AcDbAlignedDimension
 13
87.9897599999999045
 23
120.0000000000000142
 33
0.0
 14
87.9897599999999045
 24
105.9999999999999858
 34
0.0
1001
ACAD
1000
DSTYLE
1002
{
1070
144
1040
1.0
1070
40
1040
1.0
1002
}
  0
DIMENSION
  5
F4
100
AcDbEntity
  8
Cotas
 62
256
370
-1
 48
1.0
  6
BYLAYER
100
AcDbDimension
 10
100.0
 20
105.9999999999999858
 30
0.0
 11
95.0
 21
89.9999999999999858
 31
0.0
 70
1
 71
8
 72
2
 74
0
 75
0
 41
1.0
 42
0.0
  1

  3
Standard
100
AcDbAlignedDimension
 13
87.9897599999999045
 23
105.9999999999999858
 33
0.0
 14
87.9897599999999045
 24
73.9999999999999858
 34
0.0
1001
ACAD
1000
DSTYLE
1002
{
1070
144
1040
1.0
1070
40
1040
1.0
1002
}
  0
DIMENSION
  5
F5
100
AcDbEntity
  8
Cotas
 62
256
370
-1
 48
1.0
  6
BYLAYER
100
AcDbDimension
 10
100.0
 20
73.9999999999999858
 30
0.0
 11
95.0
 21
52.0
 31
0.0
 70
1
 71
8
 72
2
 74
0
 75
0
 41
1.0
 42
0.0
  1

  3
Standard
100
AcDbAlignedDimension
 13
100.0
 23
73.9999999999999858
 33
0.0
 14
100.0
 24
30.0000000000000142
 34
0.0
1001
ACAD
1000
DSTYLE
1002
{
1070
144
1040
1.0
1070
40
1040
1.0
1002
}
  0
LEADER
  5
F6
100
AcDbEntity
  8
Cotas
 62
256
370
-1
 48
1.0
  6
BYLAYER
100
AcDbLeader
  3
Standard
 71
1
 72
0
 73
3
 74
0
 75
0
 40
1.0
 41
10.0
 76
3
 10
297.0
 20
-115.0
 10
291.0
 20
-104.0
 10
316.0
 20
-104.0
1001
ACAD
1000
DSTYLE
1002
{
1070
40
1040
1.0
1002
}
  0
DIMENSION
  5
F7
100
AcDbEntity
  8
Cotas
 62
256
370
-1
 48
1.0
  6
BYLAYER
100
AcDbDimension
 10
414.0
 20
-13.6899162931199285
 30
0.0
 11
447.0
 21
-8.6899162931199285
 31
0.0
 70
1
 71
8
 72
2
 74
0
 75
0
 41
1.0
 42
0.0
  1

  3
Standard
100
AcDbAlignedDimension
 13
414.0
 23
18.0
 33
0.0
 14
480.0
 24
18.0
 34
0.0
1001
ACAD
1000
DSTYLE
1002
{
1070
144
1040
1.0
1070
40
1040
1.0
1002
}
  0
DIMENSION
  5
F8
100
AcDbEntity
  8
Cotas
 62
256
370
-1
 48
1.0
  6
BYLAYER
100
AcDbDimension
 10
438.0
 20
57.0
 30
0.0
 11
442.0
 21
62.0
 31
0.0
 70
1
 71
8
 72
2
 74
0
 75
0
 41
1.0
 42
0.0
  1

  3
Standard
100
AcDbAlignedDimension
 13
438.0
 23
52.926566399999956
 33
0.0
 14
446.0
 24
52.926566399999956
 34
0.0
1001
ACAD
1000
DSTYLE
1002
{
1070
144
1040
1.0
1070
40
1040
1.0
1002
}
  0
DIMENSION
  5
F9
100
AcDbEntity
  8
Cotas
 62
256
370
-1
 48
1.0
  6
BYLAYER
100
AcDbDimension
 10
438.0
 20
57.0
 30
0.0
 11
430.0
 21
62.0
 31
0.0
 70
1
 71
8
 72
2
 74
0
 75
0
 41
1.0
 42
0.0
  1

  3
Standard
100
AcDbAlignedDimension
 13
438.0
 23
42.0
 33
0.0
 14
422.0
 24
42.0
 34
0.0
1001
ACAD
1000
DSTYLE
1002
{
1070
144
1040
1.0
1070
40
1040
1.0
1002
}
  0
DIMENSION
  5
FA
100
AcDbEntity
  8
Cotas
 62
256
370
-1
 48
1.0
  6
BYLAYER
100
AcDbDimension
 10
414.0
 20
57.0
 30
0.0
 11
418.0
 21
62.0
 31
0.0
 70
1
 71
8
 72
2
 74
0
 75
0
 41
1.0
 42
0.0
  1

  3
Standard
100
AcDbAlignedDimension
 13
414.0
 23
42.0
 33
0.0
 14
422.0
 24
42.0
 34
0.0
1001
ACAD
1000
DSTYLE
1002
{
1070
144
1040
1.0
1070
40
1040
1.0
1002
}
  0
DIMENSION
  5
FB
100
AcDbEntity
  8
Cotas
 62
256
370
-1
 48
1.0
  6
BYLAYER
100
AcDbDimension
 10
19.9897599999999045
 20
49.4889599999998708
 30
0.0
 11
23.9897599999999045
 21
54.4889599999998708
 31
0.0
 70
1
 71
8
 72
2
 74
0
 75
0
 41
1.0
 42
0.0
  1

  3
Standard
100
AcDbAlignedDimension
 13
19.9897599999999045
 23
60.0000000000000142
 33
0.0
 14
27.9897599999999009
 24
60.0000000000000142
 34
0.0
1001
ACAD
1000
DSTYLE
1002
{
1070
144
1040
1.0
1070
40
1040
1.0
1002
}
  0
DIMENSION
  5
FC
100
AcDbEntity
  8
Cotas
 62
256
370
-1
 48
1.0
  6
BYLAYER
100
AcDbDimension
 10
40.0
 20
42.0000000000000142
 30
0.0
 11
35.0
 21
30.0000000000000142
 31
0.0
 70
1
 71
8
 72
2
 74
0
 75
0
 41
1.0
 42
0.0
  1

  3
Standard
100
AcDbAlignedDimension
 13
43.9897599999999045
 23
42.0000000000000142
 33
0.0
 14
43.9897599999999045
 24
18.0000000000000142
 34
0.0
1001
ACAD
1000
DSTYLE
1002
{
1070
144
1040
1.0
1070
40
1040
1.0
1002
}
  0
DIMENSION
  5
FD
100
AcDbEntity
  8
Cotas
 62
256
370
-1
 48
1.0
  6
BYLAYER
100
AcDbDimension
 10
51.9897599999999045
 20
30.0000000000000142
 30
0.0
 11
59.9897599999999045
 21
35.0000000000000142
 31
0.0
 70
1
 71
8
 72
2
 74
0
 75
0
 41
1.0
 42
0.0
  1

  3
Standard
100
AcDbAlignedDimension
 13
51.9897599999999045
 23
42.0000000000000142
 33
0.0
 14
67.9897599999999045
 24
42.0000000000000142
 34
0.0
1001
ACAD
1000
DSTYLE
1002
{
1070
144
1040
1.0
1070
40
1040
1.0
1002
}
  0
DIMENSION
  5
FE
100
AcDbEntity
  8
Cotas
 62
256
370
-1
 48
1.0
  6
BYLAYER
100
AcDbDimension
 10
460.0000000000000568
 20
41.9999999999999218
 30
0.0
 11
455.0
 21
35.9999999999999503
 31
0.0
 70
1
 71
8
 72
2
 74
0
 75
0
 41
1.0
 42
0.0
  1

  3
Standard
100
AcDbAlignedDimension
 13
446.0000000000000568
 23
42.0
 33
0.0
 14
446.0
 24
30.0
 34
0.0
1001
ACAD
1000
DSTYLE
1002
{
1070
144
1040
1.0
1070
40
1040
1.0
1002
}
  0
DIMENSION
  5
FF
100
AcDbEntity
  8
Cotas
 62
256
370
-1
 48
1.0
  6
BYLAYER
100
AcDbDimension
 10
260.0
 20
-58.0
 30
0.0
 11
255.0
 21
-62.0
 31
0.0
 70
1
 71
8
 72
2
 74
0
 75
0
 41
1.0
 42
0.0
  1

  3
Standard
100
AcDbAlignedDimension
 13
270.0
 23
-58.0
 33
0.0
 14
270.0
 24
-66.0
 34
0.0
1001
ACAD
1000
DSTYLE
1002
{
1070
144
1040
1.0
1070
40
1040
1.0
1002
}
  0
DIMENSION
  5
100
100
AcDbEntity
  8
Cotas
 62
256
370
-1
 48
1.0
  6
BYLAYER
100
AcDbDimension
 10
260.0
 20
-66.0
 30
0.0
 11
255.0
 21
-72.0
 31
0.0
 70
1
 71
8
 72
2
 74
0
 75
0
 41
1.0
 42
0.0
  1

  3
Standard
100
AcDbAlignedDimension
 13
270.0
 23
-66.0
 33
0.0
 14
270.0
 24
-78.0
 34
0.0
1001
ACAD
1000
DSTYLE
1002
{
1070
144
1040
1.0
1070
40
1040
1.0
1002
}
  0
ENDSEC
  0
SECTION
  2
OBJECTS
  0
DICTIONARY
  5
C
100
AcDbDictionary
280
0
281
1
  3
ACAD_GROUP
350
D
  3
ACAD_LAYOUT
350
1A
  3
ACAD_MLINESTYLE
350
17
  3
ACAD_PLOTSETTINGS
350
19
  3
ACAD_PLOTSTYLENAME
350
E
  3
AcDbVariableDictionary
350
101
  3
QCAD_OBJECTS
350
102
  0
DICTIONARY
  5
D
100
AcDbDictionary
280
0
281
1
  0
ACDBDICTIONARYWDFLT
  5
E
100
AcDbDictionary
281
1
  3
Normal
350
F
100
AcDbDictionaryWithDefault
340
F
  0
ACDBPLACEHOLDER
  5
F
  0
DICTIONARY
  5
17
100
AcDbDictionary
280
0
281
1
  3
Standard
350
18
  0
MLINESTYLE
  5
18
100
AcDbMlineStyle
  2
STANDARD
 70
0
  3

 62
256
 51
90.0
 52
90.0
 71
2
 49
0.5
 62
256
  6
BYLAYER
 49
-0.5
 62
256
  6
BYLAYER
  0
DICTIONARY
  5
19
100
AcDbDictionary
280
0
281
1
  0
DICTIONARY
  5
1A
100
AcDbDictionary
281
1
  3
Layout1
350
1E
  3
Layout2
350
26
  3
Model
350
22
  0
LAYOUT
  5
1E
100
AcDbPlotSettings
  1

  2
none_device
  4

  6

 40
0.0
 41
0.0
 42
0.0
 43
0.0
 44
0.0
 45
0.0
 46
0.0
 47
0.0
 48
0.0
 49
0.0
140
0.0
141
0.0
142
1.0
143
1.0
 70
688
 72
0
 73
0
 74
5
  7

 75
16
147
1.0
148
0.0
149
0.0
100
AcDbLayout
  1
Layout1
 70
1
 71
1
 10
0.0
 20
0.0
 11
420.0
 21
297.0
 12
0.0
 22
0.0
 32
0.0
 14
100000000000000000000.0
 24
100000000000000000000.0
 34
100000000000000000000.0
 15
-100000000000000000000.0
 25
-100000000000000000000.0
 35
-100000000000000000000.0
146
0.0
 13
0.0
 23
0.0
 33
0.0
 16
1.0
 26
0.0
 36
0.0
 17
0.0
 27
1.0
 37
0.0
 76
0
330
1B
  0
LAYOUT
  5
22
100
AcDbPlotSettings
  1

  2
none_device
  4

  6

 40
0.0
 41
0.0
 42
0.0
 43
0.0
 44
0.0
 45
0.0
 46
0.0
 47
0.0
 48
0.0
 49
0.0
140
0.0
141
0.0
142
1.0
143
1.0
 70
1712
 72
0
 73
0
 74
0
  7

 75
0
147
1.0
148
0.0
149
0.0
100
AcDbLayout
  1
Model
 70
1
 71
0
 10
0.0
 20
0.0
 11
12.0
 21
9.0
 12
0.0
 22
0.0
 32
0.0
 14
0.0
 24
0.0
 34
0.0
 15
0.0
 25
0.0
 35
0.0
146
0.0
 13
0.0
 23
0.0
 33
0.0
 16
1.0
 26
0.0
 36
0.0
 17
0.0
 27
1.0
 37
0.0
 76
0
330
1F
  0
LAYOUT
  5
26
100
AcDbPlotSettings
  1

  2
none_device
  4

  6

 40
0.0
 41
0.0
 42
0.0
 43
0.0
 44
0.0
 45
0.0
 46
0.0
 47
0.0
 48
0.0
 49
0.0
140
0.0
141
0.0
142
1.0
143
1.0
 70
688
 72
0
 73
0
 74
5
  7

 75
16
147
1.0
148
0.0
149
0.0
100
AcDbLayout
  1
Layout2
 70
1
 71
2
 10
0.0
 20
0.0
 11
12.0
 21
9.0
 12
0.0
 22
0.0
 32
0.0
 14
0.0
 24
0.0
 34
0.0
 15
0.0
 25
0.0
 35
0.0
146
0.0
 13
0.0
 23
0.0
 33
0.0
 16
1.0
 26
0.0
 36
0.0
 17
0.0
 27
1.0
 37
0.0
 76
0
330
23
  0
DICTIONARY
  5
101
100
AcDbDictionary
281
1
  3
DIMASSOC
350
104
  3
HIDETEXT
350
103
  0
DICTIONARYVAR
  5
103
100
DictionaryVariables
280
0
  1
2
  0
DICTIONARYVAR
  5
104
100
DictionaryVariables
280
0
  1
1
  0
DICTIONARY
  5
102
100
AcDbDictionary
281
1
  3
ColorSettings/BackgroundColor
350
105
  3
ColorSettings/ColorMode
350
106
  3
DimensionSettings/AngularFormat
350
107
  3
DimensionSettings/AngularPrecision
350
108
  3
DimensionSettings/DecimalPoint
350
109
  3
DimensionSettings/DimensionFont
350
10A
  3
DimensionSettings/DimensionTextColor
350
10B
  3
DimensionSettings/KeepProportions
350
10C
  3
DimensionSettings/LinearFormat
350
10D
  3
DimensionSettings/LinearPrecision
350
10E
  3
Grid/DisplayGrid00
350
10F
  3
Grid/DisplayGrid01
350
110
  3
Grid/DisplayGrid02
350
111
  3
Grid/DisplayGrid03
350
112
  3
Grid/GridSpacingX00
350
113
  3
Grid/GridSpacingX01
350
114
  3
Grid/GridSpacingX02
350
115
  3
Grid/GridSpacingX03
350
116
  3
Grid/GridSpacingY00
350
117
  3
Grid/GridSpacingY01
350
118
  3
Grid/GridSpacingY02
350
119
  3
Grid/GridSpacingY03
350
11A
  3
Grid/IsometricGrid00
350
11B
  3
Grid/IsometricGrid01
350
11C
  3
Grid/IsometricGrid02
350
11D
  3
Grid/IsometricGrid03
350
11E
  3
Grid/IsometricProjection00
350
11F
  3
Grid/IsometricProjection01
350
120
  3
Grid/IsometricProjection02
350
121
  3
Grid/IsometricProjection03
350
122
  3
Grid/MetaGridSpacingX00
350
123
  3
Grid/MetaGridSpacingX01
350
124
  3
Grid/MetaGridSpacingX02
350
125
  3
Grid/MetaGridSpacingX03
350
126
  3
Grid/MetaGridSpacingY00
350
127
  3
Grid/MetaGridSpacingY01
350
128
  3
Grid/MetaGridSpacingY02
350
129
  3
Grid/MetaGridSpacingY03
350
12A
  3
LinetypeSettings/PSLTSCALE
350
12B
  3
MultiPageSettings/Columns
350
12C
  3
MultiPageSettings/GlueMarginsBottom
350
12D
  3
MultiPageSettings/GlueMarginsLeft
350
12E
  3
MultiPageSettings/GlueMarginsRight
350
12F
  3
MultiPageSettings/GlueMarginsTop
350
130
  3
MultiPageSettings/PrintCropMarks
350
131
  3
MultiPageSettings/Rows
350
132
  3
PageSettings/OffsetX
350
133
  3
PageSettings/OffsetY
350
134
  3
PageSettings/PageOrientation
350
135
  3
PageSettings/PaperHeight
350
136
  3
PageSettings/PaperWidth
350
137
  3
PageSettings/Scale
350
138
  3
PageSettings/ShowPaperBorders
350
139
  3
PageTagSettings/EnablePageTags
350
13A
  3
PageTagSettings/TagAlignment
350
13B
  3
PageTagSettings/TagFont
350
13C
  3
PageTagSettings/TagPosition
350
13D
  3
QCADVersion
350
13E
  3
UnitSettings/Measurement
350
13F
  3
UnitSettings/PaperUnit
350
140
  3
ViewportCenter
350
141
  3
ViewportHeight
350
142
  3
ViewportWidth
350
143
  0
XRECORD
  5
105
330
102
100
AcDbXrecord
280
1
1000
Branco
  0
XRECORD
  5
106
330
102
100
AcDbXrecord
280
1
1000
FullColor
  0
XRECORD
  5
107
330
102
100
AcDbXrecord
280
1
 90
0
  0
XRECORD
  5
108
330
102
100
AcDbXrecord
280
1
 90
0
  0
XRECORD
  5
109
330
102
100
AcDbXrecord
280
1
 90
46
  0
XRECORD
  5
10A
330
102
100
AcDbXrecord
280
1
1000
MS Shell Dlg 2
  0
XRECORD
  5
10B
330
102
100
AcDbXrecord
280
1
1000
Pela Camada
  0
XRECORD
  5
10C
330
102
100
AcDbXrecord
280
1
290
0
  0
XRECORD
  5
10D
330
102
100
AcDbXrecord
280
1
 90
2
  0
XRECORD
  5
10E
330
102
100
AcDbXrecord
280
1
 90
4
  0
XRECORD
  5
10F
330
102
100
AcDbXrecord
280
1
290
1
  0
XRECORD
  5
110
330
102
100
AcDbXrecord
280
1
290
1
  0
XRECORD
  5
111
330
102
100
AcDbXrecord
280
1
290
1
  0
XRECORD
  5
112
330
102
100
AcDbXrecord
280
1
290
1
  0
XRECORD
  5
113
330
102
100
AcDbXrecord
280
1
1000
auto
  0
XRECORD
  5
114
330
102
100
AcDbXrecord
280
1
1000
auto
  0
XRECORD
  5
115
330
102
100
AcDbXrecord
280
1
1000
auto
  0
XRECORD
  5
116
330
102
100
AcDbXrecord
280
1
1000
auto
  0
XRECORD
  5
117
330
102
100
AcDbXrecord
280
1
1000
auto
  0
XRECORD
  5
118
330
102
100
AcDbXrecord
280
1
1000
auto
  0
XRECORD
  5
119
330
102
100
AcDbXrecord
280
1
1000
auto
  0
XRECORD
  5
11A
330
102
100
AcDbXrecord
280
1
1000
auto
  0
XRECORD
  5
11B
330
102
100
AcDbXrecord
280
1
290
0
  0
XRECORD
  5
11C
330
102
100
AcDbXrecord
280
1
290
0
  0
XRECORD
  5
11D
330
102
100
AcDbXrecord
280
1
290
0
  0
XRECORD
  5
11E
330
102
100
AcDbXrecord
280
1
290
0
  0
XRECORD
  5
11F
330
102
100
AcDbXrecord
280
1
 90
65537
  0
XRECORD
  5
120
330
102
100
AcDbXrecord
280
1
 90
65537
  0
XRECORD
  5
121
330
102
100
AcDbXrecord
280
1
 90
65537
  0
XRECORD
  5
122
330
102
100
AcDbXrecord
280
1
 90
65537
  0
XRECORD
  5
123
330
102
100
AcDbXrecord
280
1
1000
auto
  0
XRECORD
  5
124
330
102
100
AcDbXrecord
280
1
1000
auto
  0
XRECORD
  5
125
330
102
100
AcDbXrecord
280
1
1000
auto
  0
XRECORD
  5
126
330
102
100
AcDbXrecord
280
1
1000
auto
  0
XRECORD
  5
127
330
102
100
AcDbXrecord
280
1
1000
auto
  0
XRECORD
  5
128
330
102
100
AcDbXrecord
280
1
1000
auto
  0
XRECORD
  5
129
330
102
100
AcDbXrecord
280
1
1000
auto
  0
XRECORD
  5
12A
330
102
100
AcDbXrecord
280
1
1000
auto
  0
XRECORD
  5
12B
330
102
100
AcDbXrecord
280
1
290
1
  0
XRECORD
  5
12C
330
102
100
AcDbXrecord
280
1
 90
1
  0
XRECORD
  5
12D
330
102
100
AcDbXrecord
280
1
 40
10.0
  0
XRECORD
  5
12E
330
102
100
AcDbXrecord
280
1
 40
10.0
  0
XRECORD
  5
12F
330
102
100
AcDbXrecord
280
1
 40
10.0
  0
XRECORD
  5
130
330
102
100
AcDbXrecord
280
1
 40
10.0
  0
XRECORD
  5
131
330
102
100
AcDbXrecord
280
1
290
0
  0
XRECORD
  5
132
330
102
100
AcDbXrecord
280
1
 90
1
  0
XRECORD
  5
133
330
102
100
AcDbXrecord
280
1
 40
0.0
  0
XRECORD
  5
134
330
102
100
AcDbXrecord
280
1
 40
0.0
  0
XRECORD
  5
135
330
102
100
AcDbXrecord
280
1
1000
Portrait
  0
XRECORD
  5
136
330
102
100
AcDbXrecord
280
1
 40
297.0
  0
XRECORD
  5
137
330
102
100
AcDbXrecord
280
1
 40
210.0
  0
XRECORD
  5
138
330
102
100
AcDbXrecord
280
1
1000
1:1
  0
XRECORD
  5
139
330
102
100
AcDbXrecord
280
1
290
1
  0
XRECORD
  5
13A
330
102
100
AcDbXrecord
280
1
290
0
  0
XRECORD
  5
13B
330
102
100
AcDbXrecord
280
1
1000
Inside
  0
XRECORD
  5
13C
330
102
100
AcDbXrecord
280
1
1000
Arial,10,-1,5,50,0,0,0,0,0
  0
XRECORD
  5
13D
330
102
100
AcDbXrecord
280
1
1000
TopLeft
  0
XRECORD
  5
13E
330
102
100
AcDbXrecord
280
1
1000
3.26.1
  0
XRECORD
  5
13F
330
102
100
AcDbXrecord
280
1
 90
1
  0
XRECORD
  5
140
330
102
100
AcDbXrecord
280
1
 90
4
  0
XRECORD
  5
142
330
102
100
AcDbXrecord
280
1
 40
560.228311498750486
  0
XRECORD
  5
143
330
102
100
AcDbXrecord
280
1
 40
1106.339463954428993
  0
ENDSEC
  0
EOF
